<svg width="200" height="200" viewBox="0 0 200 200" fill="none" xmlns="http://www.w3.org/2000/svg">
<rect width="200" height="200" rx="24" fill="#FE7549"/>
<path d="M128.95 78.1646C131.082 76.9091 133.504 76.5228 135.927 77.1987C138.252 77.8748 140.578 79.5169 141.159 83.8628C141.161 83.8742 142.457 90.4032 139.065 102.136C141.743 99.6703 144.248 97.0168 146.53 94.1567C142.461 101.4 136.356 107.388 129.767 112.216C110.581 126.22 81.1241 136.746 59.9033 121.391C68.8179 126.316 79.3799 127.476 89.3604 126.22C95.368 125.351 101.182 123.709 106.802 121.488C112.399 119.292 117.928 116.707 123.19 113.668C121.102 111.891 114.831 105.254 118.485 92.0718C118.485 92.0718 121.101 82.8002 128.95 78.1646ZM130.113 90.1401C129.047 91.3956 128.272 92.8441 127.787 94.4858C126.336 98.9207 126.472 106.203 130.907 108.726C130.912 108.723 130.916 108.72 130.921 108.717C128.898 103.892 129.92 97.6649 130.113 92.5542V90.1401Z" fill="white"/>
<path d="M157.771 45C176.375 70.1096 175.019 107.194 155.833 131.725C141.492 150.943 116.879 162.725 92.9454 160.794C106.414 159.731 119.399 155.772 130.542 148.722C165.716 127.089 177.247 81.2157 157.771 45Z" fill="white"/>
<path d="M97.0151 73.0068C98.6206 73.0068 99.9221 71.2773 99.9221 69.1438C99.9221 67.0104 98.6206 65.2808 97.0151 65.2808C95.4096 65.2808 94.1082 67.0104 94.1082 69.1438C94.1082 71.2773 95.4096 73.0068 97.0151 73.0068Z" fill="white"/>
<path d="M93.4297 46.9316C97.5963 46.9316 100.988 50.3121 100.988 54.4648V62.6895C100.968 62.3985 100.683 61.418 97.79 61.418C92.5577 61.4181 90.2324 65.8606 90.2324 70.4961C90.2324 70.4961 83.614 74.6294 87.6406 81.6377C94.9369 81.9957 102.228 83.6057 109.128 85.7549L102.732 84.5957L96.3369 83.7266C94.3989 83.7266 91.7825 83.3408 89.9414 83.3408C82.4069 83.2665 74.3566 84.0528 67.5127 87.3262C76.0294 90.3524 71.1721 101.057 62.0352 103.814C56.3182 105.746 52.6359 102.366 54.3799 96.7646C55.5462 93.3703 57.6792 90.6708 60.3555 88.5459C57.3236 88.5014 54.2679 88.8841 52.4414 89.3281C45.271 91.1631 38.8759 95.9923 35 102.366V102.27C37.4193 96.9059 41.5495 92.7208 46.5312 90.0078V67.0195C46.5312 60.7421 52.0542 55.623 58.7402 55.623C62.7131 55.6231 65.9111 58.6174 65.9111 62.3838V71.2686C65.9111 71.2686 66.0071 68.1777 62.4219 68.1777C57.868 68.178 55.833 72.2343 55.833 76.4834C55.8048 76.5021 49.7741 80.5007 53.9404 87.209C55.1471 86.9323 56.375 86.7311 57.6152 86.6074L57.4287 86.5879C54.4209 81.799 58.7402 78.8975 58.7402 78.8975C58.7404 75.9038 60.1939 73.0068 63.4883 73.0068C66.7824 73.0068 66.008 74.0689 66.0078 75.3242V85.1611C67.4196 84.5247 68.8851 83.9849 70.3682 83.5332C73.7375 82.5335 77.1754 81.9523 80.6396 81.7051V59.6797C80.6396 52.6298 86.3562 46.9317 93.4297 46.9316ZM64.5586 88.9453C63.5851 89.556 62.645 90.229 61.7441 90.9697C60.1938 92.3218 58.9338 93.7704 57.9648 95.5088C57.1897 96.9573 56.4147 99.0818 57.1895 100.627C58.0615 101.786 60.0001 101.303 61.2598 100.917C63.5852 100.241 65.8139 98.7919 67.3643 96.957C68.9145 95.2187 69.9799 92.5149 68.9141 91.0664C68.0458 89.9848 66.4532 89.3196 64.5586 88.9453Z" fill="white"/>
</svg>
