<svg width="33" height="32" viewBox="0 0 33 32" fill="none" xmlns="http://www.w3.org/2000/svg">
<path d="M20.1328 1.67358C21.5465 1.75933 22.7851 2.65152 23.3135 3.96558C23.3575 4.07523 23.3972 4.19431 23.4492 4.35034C23.5096 4.53156 23.5269 4.58185 23.543 4.62183C23.7832 5.21902 24.3457 5.6249 24.9883 5.66382C25.031 5.66639 25.0893 5.66675 25.293 5.66675C25.7592 5.66675 26.0677 5.66559 26.3262 5.69116C28.6975 5.92627 30.5745 7.8022 30.8096 10.1736C30.8351 10.4318 30.834 10.7266 30.834 11.1697V21.6003C30.834 22.7036 30.834 23.5913 30.7754 24.3083C30.7158 25.0371 30.5908 25.678 30.2891 26.2703C29.8097 27.211 29.0442 27.9755 28.1035 28.4548C27.5114 28.7565 26.8712 28.8826 26.1426 28.9421C25.4255 29.0007 24.537 28.9998 23.4336 28.9998H9.56738C8.46396 28.9998 7.57551 29.0007 6.8584 28.9421C6.12976 28.8826 5.48961 28.7564 4.89746 28.4548C3.95677 27.9755 3.19129 27.2109 2.71191 26.2703C2.41014 25.678 2.28416 25.0372 2.22461 24.3083C2.16605 23.5913 2.16699 22.7036 2.16699 21.6003V11.1697C2.16699 10.7266 2.16582 10.4319 2.19141 10.1736C2.42645 7.80216 4.30241 5.92621 6.67383 5.69116C6.93238 5.66557 7.24146 5.66675 7.70801 5.66675C7.91178 5.66675 7.96999 5.6664 8.0127 5.66382C8.6551 5.62467 9.21791 5.21899 9.45801 4.62183C9.47408 4.58185 9.49132 4.53164 9.55176 4.35034C9.60377 4.19429 9.64243 4.07525 9.68652 3.96558C10.2149 2.65138 11.4534 1.75928 12.8672 1.67358C12.9851 1.66645 13.1109 1.66675 13.2754 1.66675H19.7256C19.8898 1.66675 20.015 1.66647 20.1328 1.67358ZM16.5 10.3337C13.0025 10.3339 10.1672 13.1692 10.167 16.6667C10.1672 20.1643 13.0025 23.0006 16.5 23.0007C19.9975 23.0006 22.8338 20.1643 22.834 16.6667C22.8338 13.1692 19.9975 10.3339 16.5 10.3337Z" fill="#A8A8A8"/>
</svg>
