<svg width="72" height="72" viewBox="0 0 72 72" fill="none" xmlns="http://www.w3.org/2000/svg">
<path d="M34.7244 40.7001C34.6225 40.3424 33.0424 35.2427 32.0361 33.5299C31.0299 31.8172 29.8972 31.2347 28.8923 28.6165C27.8874 25.9983 28.8059 23.3012 29.2779 22.2576C30.1496 20.3349 31.849 19.0651 31.849 19.0651C31.849 19.0651 30.6266 16.4636 32.3803 14.59C34.3614 12.4747 36.8159 14.2892 37.2245 14.3662C37.6332 14.4432 43.7783 8.37314 43.7783 8.37314C43.7783 8.37314 44.8082 7.00604 47.3876 6.31248C50.9482 5.35179 53.019 7.09042 53.9071 7.68082C55.2635 8.58627 56.9423 11.2306 57.3784 12.9782C57.8145 14.7258 57.6376 15.6648 57.9526 16.0194C58.2675 16.374 59.2945 15.8635 60.6014 16.7542C61.8013 17.5726 63.4844 18.9321 64.446 22.0769C65.3756 25.1238 63.5341 30.0256 63.0052 30.8839C62.4773 31.7459 61.826 32.6514 61.4844 33.7196C61.1417 34.784 60.9096 36.8001 59.7012 38.4361C58.489 40.0731 56.2392 41.2159 54.7376 41.837C53.236 42.458 51.5804 42.5963 50.7024 43.6157C49.7929 44.6688 49.3618 48.1815 47.6871 50.4769C46.7056 51.8261 45.7447 52.5112 44.553 52.9205C42.7253 53.5522 41.7869 53.3341 40.9766 53.3345C39.6152 53.3356 34.7244 40.7001 34.7244 40.7001Z" fill="#598B15"/>
<path d="M34.0091 50.4811C34.0091 50.4811 30.9568 49.3552 30.662 45.6626C30.3972 42.3645 31.8498 40.5315 31.8535 37.3956C31.856 34.2847 31.0101 33.1639 30.4128 31.8613C29.7607 30.4385 29.6064 30.359 29.756 30.2341C29.9121 30.1033 32.8707 34.1932 32.9 34.2959C33.3103 35.6066 34.32 37.7215 34.4259 39.1477C34.5319 40.5739 32.4569 43.2548 32.6596 44.6164C32.8623 45.978 33.1777 49.0641 33.7152 49.7667C34.2537 50.4731 35.8522 50.3222 35.8522 50.3222L34.0091 50.4811Z" fill="#85BB41"/>
<path d="M34.0937 50.0414C34.0087 50.2631 33.6531 51.109 33.1999 51.7853C32.7466 52.4615 31.5058 53.1605 31.6436 53.471C31.7803 53.7776 36.5703 56.1364 36.5703 56.1364L40.3757 57.5085C40.3757 57.5085 40.9931 56.1519 41.2767 54.9233C41.4316 54.2539 41.5899 53.3654 41.5899 53.3654C41.5899 53.3654 42.7343 53.5414 44.2267 52.8448C46.4607 51.8053 47.8037 48.4895 48.2541 46.6045C48.5398 45.4124 49.0249 43.0568 50.4478 41.6107C51.8707 40.1645 53.8599 39.421 55.489 37.8175C56.7633 36.5576 58.3022 34.1611 58.7497 32.5978C59.1961 31.0308 59.0095 30.5491 59.0095 30.5491C59.0095 30.5491 61.9941 24.1287 58.8581 18.8675C55.7222 13.6062 54.3909 14.6807 52.9147 13.5132C51.4422 12.3446 50.2425 8.667 46.1391 8.19845C42.0356 7.7299 38.7966 10.2816 37.3417 12.3663C35.9417 14.3695 33.6058 17.6513 33.5265 23.7132C33.4875 26.855 35.7067 31.3818 35.9529 32.6652C36.3555 34.7721 34.694 38.2115 34.694 38.2115C34.694 38.2115 32.8278 42.1165 32.796 42.5246C32.7641 42.9327 33.0461 47.7645 33.0461 47.7645L34.0937 50.0414Z" fill="url(#paint0_radial_1111_5220)"/>
<path d="M41.3095 48.3522C41.6655 48.2878 44.2855 47.1302 45.452 44.1485C46.6186 41.1669 45.7574 38.2732 45.7524 38.3857C45.7474 38.4982 41.1268 40.3738 41.5212 42.0182C41.9144 43.6587 41.3095 48.3522 41.3095 48.3522Z" fill="#598B15"/>
<path d="M35.7669 51.0912C35.7669 51.0912 32.8963 50.9791 32.1047 47.3045C31.3305 43.7197 33.7188 41.3156 33.1102 37.2146C32.8162 35.229 31.8585 33.8891 30.9304 32.4215C29.9192 30.8212 29.0194 29.2509 29.4663 29.7366C30.164 30.4964 30.656 30.9816 32.402 33.183C33.4483 34.5018 34.4605 36.1635 34.7476 38.0523C35.2152 41.1239 33.1077 44.3407 33.5649 46.8557C34.1005 49.8051 35.8928 50.6234 35.8928 50.6234L35.7669 51.0912Z" fill="#E9E7D7"/>
<path d="M37.967 53.3853C36.862 52.8567 35.1506 51.5423 35.1465 49.2026C35.1414 46.1515 36.6295 44.7609 37.6173 41.6285C38.6052 38.4962 38.1839 35.9339 37.466 33.2833C36.5058 29.739 35.9011 26.8505 36.4606 26.4895C37.0201 26.1286 37.7611 29.9286 38.7733 32.9479C39.4749 35.0355 40.6641 38.2141 40.6641 38.2141C40.6641 38.2141 42.086 36.1142 41.9313 33.8668C41.6584 29.8758 38.9907 26.2296 38.1029 21.8996C37.4441 18.6767 38.0671 15.1876 39.1106 13.1172C39.8564 11.6336 40.6861 10.4305 41.0665 10.5237C41.4469 10.6169 39.8798 13.507 39.6454 16.4247C39.411 19.3425 39.9159 21.9961 41.0968 24.7123C42.2778 27.4285 43.6044 30.0785 43.9084 29.8891C44.2124 29.6996 45.0851 25.1232 44.8361 21.8659C44.5903 18.6776 44.3268 16.5682 45.2076 14.1287C46.0884 11.6892 47.4506 10.03 47.8124 10.2313C48.4529 10.5878 46.8588 12.0251 46.4946 15.383C46.2756 17.3872 46.6431 18.6195 46.898 21.9121C47.0309 23.6063 46.8494 27.5333 46.9363 27.6649C47.0231 27.7965 48.4362 26.4889 49.3714 25.3092C50.3066 24.1296 51.9224 21.9744 53.0726 19.0508C53.7234 17.3927 54.1039 16.0707 54.6689 16.2635C55.2351 16.4602 54.2835 21.1208 52.8522 23.4909C50.8114 26.8697 47.7938 29.8232 47.9 30.1961C48.0062 30.569 51.3225 29.2994 54.4463 27.3976C56.96 25.867 59.2651 22.9396 59.7436 23.3628C60.2221 23.786 57.3789 26.6734 55.4158 28.1582C52.2736 30.5301 49.2655 31.2347 47.589 33.0328C45.9136 34.8347 45.2802 37.2038 45.1847 37.6341C45.1504 37.7879 48.3438 35.8704 51.5047 34.4599C54.6656 33.0494 58.7272 30.1647 59.0154 30.6421C59.3036 31.1195 57.81 32.6639 54.124 34.73C50.4381 36.796 47.6829 38.5476 45.9068 40.5304C44.1308 42.5132 43.24 44.5565 42.6723 46.8533C42.1047 49.1501 42.9723 52.2682 41.5262 53.4453C40.574 54.2184 38.9705 53.8606 37.967 53.3853Z" fill="#E9E7D7"/>
<path d="M31.636 53.2427C31.2183 53.625 31.6173 54.2889 32.0311 54.6441C32.6606 55.193 33.6204 55.7465 35.7931 56.6293C37.4811 57.3127 38.3135 57.6063 39.2112 57.725C39.9122 57.8174 40.5444 57.6538 40.5279 57.2059C40.5242 57.0918 37.8369 56.2652 36.0869 55.5377C33.0738 54.2896 31.7274 53.1591 31.636 53.2427Z" fill="#B5CF17"/>
<path d="M18.5614 42.1694C17.4957 41.127 16.235 41.5225 15.1031 42.6595C12.6017 45.2575 7.5176 42.1913 9.08046 38.2584C5.71184 35.9764 6.89417 30.3208 11.5046 30.5007C10.5906 21.4044 22.2536 20.1809 24.0209 27.4504C29.5494 26.2245 31.8832 32.9757 26.9576 36.0624C25.6614 36.88 23.2036 37.0578 22.781 38.7894C22.2031 41.0046 19.6272 43.2118 18.5614 42.1694Z" fill="#729A24"/>
<mask id="mask0_1111_5220" style="mask-type:luminance" maskUnits="userSpaceOnUse" x="7" y="22" width="23" height="22">
<path d="M18.5614 42.1694C17.4957 41.127 16.235 41.5225 15.1031 42.6595C12.6017 45.2575 7.5176 42.1913 9.08046 38.2584C5.71184 35.9764 6.89417 30.3208 11.5046 30.5007C10.5906 21.4044 22.2536 20.1809 24.0209 27.4504C29.5494 26.2245 31.8832 32.9757 26.9576 36.0624C25.6614 36.88 23.2036 37.0578 22.781 38.7894C22.2031 41.0046 19.6272 43.2118 18.5614 42.1694Z" fill="white"/>
</mask>
<g mask="url(#mask0_1111_5220)">
<path d="M6.91285 34.7283C6.95915 34.3764 7.57867 34.1085 7.83464 34.5574C7.83464 34.5574 8.64503 37.0183 11.5227 36.6752C12.3949 36.5551 12.7901 36.882 13.0449 37.2306C14.2275 38.844 19.1396 40.888 22.6708 35.1863C23.0063 34.6605 23.4803 34.846 23.6919 34.9139C23.9035 34.9819 26.8505 35.4613 28.3946 33.4562C28.8596 32.8386 29.4675 33.3339 29.4675 33.3339L29.6404 37.1573L10.7468 47.2962L6.00025 36.636L6.91285 34.7283Z" fill="#327E33"/>
</g>
<path d="M19.2571 43.3263C14.694 45.5957 11.4467 51.5553 13.4127 55.9211C16.2948 62.3148 22.6495 62.2545 25.0879 62.1371C27.4163 62.0511 29.0378 62.505 30.664 64.2942C32.2902 66.0834 34.4949 67.5248 36.0526 67.6582C37.3091 67.7949 37.9605 65.87 36.7999 65.3307C32.5614 63.3696 33.2509 59.4564 35.5601 56.73C39.2666 52.3516 39.589 47.9204 38.3468 45.4542C34.6106 38.086 27.0765 39.5349 23.9293 40.9252C23.1495 39.4077 22.5965 38.4299 22.483 38.1601C22.3383 37.7802 21.9561 37.7242 21.6982 38.0082C20.9148 38.8903 19.0682 39.8646 17.7643 39.9794C17.4534 40.013 17.297 40.3963 17.4806 40.6553C17.6026 40.7945 19.2571 43.3263 19.2571 43.3263Z" fill="#CC1A36"/>
<mask id="mask1_1111_5220" style="mask-type:luminance" maskUnits="userSpaceOnUse" x="12" y="37" width="27" height="31">
<path d="M19.2571 43.3263C14.694 45.5957 11.4467 51.5553 13.4127 55.9211C16.2948 62.3148 22.6495 62.2545 25.0879 62.1371C27.4163 62.0511 29.0378 62.505 30.664 64.2942C32.2902 66.0834 34.4949 67.5248 36.0526 67.6582C37.3091 67.7949 37.9605 65.87 36.7999 65.3307C32.5614 63.3696 33.2509 59.4564 35.5601 56.73C39.2666 52.3516 39.589 47.9204 38.3468 45.4542C34.6106 38.086 27.0765 39.5349 23.9293 40.9252C23.1495 39.4077 22.5965 38.4299 22.483 38.1601C22.3383 37.7802 21.9561 37.7242 21.6982 38.0082C20.9148 38.8903 19.0682 39.8646 17.7643 39.9794C17.4534 40.013 17.297 40.3963 17.4806 40.6553C17.6026 40.7945 19.2571 43.3263 19.2571 43.3263Z" fill="white"/>
</mask>
<g mask="url(#mask1_1111_5220)">
<path d="M33.9675 53.4845C34.7326 52.7632 33.7747 51.4887 32.7581 52.1626C31.8516 52.8051 30.0676 53.9996 28.4983 54.6294C27.1492 55.1966 28.0402 56.7831 29.1606 56.4092C30.8713 55.8581 32.9639 54.4293 33.9675 53.4845ZM20.5624 55.149C19.5618 55.4613 18.9417 53.8618 19.9012 53.4696C21.0906 52.9846 22.5983 52.2349 23.587 51.7521C24.4159 51.3514 25.3943 52.6658 24.4877 53.3084C23.6708 53.8797 21.373 54.9091 20.5624 55.149ZM20.8486 35.6681C23.3467 36.4035 24.1717 37.4686 24.3698 39.0327L23.8987 40.9154C23.8987 40.9154 24.2132 42.1167 22.6375 43.0779C21.8896 43.538 21.0454 43.4671 19.8347 44.7455C16.8284 47.9816 16.1571 51.734 18.0612 55.0462C19.7915 58.0692 21.9 58.9796 23.6002 59.2921C24.6668 59.5011 26.9388 58.8635 28.4962 58.0631C29.6046 57.5187 30.5938 58.9034 29.7186 59.656C29.1618 60.1441 28.022 60.5784 27.4219 60.7859C29.1957 61.3887 30.4783 62.0673 31.8604 63.578C33.7609 65.6554 35.2022 66.1515 35.9265 66.284C36.4296 66.3788 37.0749 65.7191 36.8469 65.079C36.6286 64.4088 37.028 64.2035 37.3691 64.1797C37.7005 64.1861 38.817 65.2781 38.1806 66.741C37.5442 68.2038 36.5824 68.3952 36.0611 68.4612C35.53 68.5574 15.3249 61.8034 15.3249 61.8034C15.3249 61.8034 9.65965 54.316 9.5071 53.2333C7.40767 36.821 20.8486 35.6681 20.8486 35.6681Z" fill="#891E0E"/>
</g>
<mask id="mask2_1111_5220" style="mask-type:luminance" maskUnits="userSpaceOnUse" x="12" y="37" width="27" height="31">
<path d="M19.2571 43.3263C14.694 45.5957 11.4467 51.5553 13.4127 55.9211C16.2948 62.3148 22.6495 62.2545 25.0879 62.1371C27.4163 62.0511 29.0378 62.505 30.664 64.2942C32.2902 66.0834 34.4949 67.5248 36.0526 67.6582C37.3091 67.7949 37.9605 65.87 36.7999 65.3307C32.5614 63.3696 33.2509 59.4564 35.5601 56.73C39.2666 52.3516 39.589 47.9204 38.3468 45.4542C34.6106 38.086 27.0765 39.5349 23.9293 40.9252C23.1495 39.4077 22.5965 38.4299 22.483 38.1601C22.3383 37.7802 21.9561 37.7242 21.6982 38.0082C20.9148 38.8903 19.0682 39.8646 17.7643 39.9794C17.4534 40.013 17.297 40.3963 17.4806 40.6553C17.6026 40.7945 19.2571 43.3263 19.2571 43.3263Z" fill="white"/>
</mask>
<g mask="url(#mask2_1111_5220)">
<path d="M21.1867 38.044C21.3808 37.4395 22.4516 37.1164 22.4516 37.1164C23.283 37.8501 23.8992 40.9156 23.8992 40.9156C23.8992 40.9156 24.0668 41.5362 23.5726 42.2445C23.5629 42.2747 21.7603 39.0618 21.1867 38.044Z" fill="#AF0D1A"/>
</g>
<mask id="mask3_1111_5220" style="mask-type:luminance" maskUnits="userSpaceOnUse" x="12" y="37" width="27" height="31">
<path d="M19.2571 43.3263C14.694 45.5957 11.4467 51.5553 13.4127 55.9211C16.2948 62.3148 22.6495 62.2545 25.0879 62.1371C27.4163 62.0511 29.0378 62.505 30.664 64.2942C32.2902 66.0834 34.4949 67.5248 36.0526 67.6582C37.3091 67.7949 37.9605 65.87 36.7999 65.3307C32.5614 63.3696 33.2509 59.4564 35.5601 56.73C39.2666 52.3516 39.589 47.9204 38.3468 45.4542C34.6106 38.086 27.0765 39.5349 23.9293 40.9252C23.1495 39.4077 22.5965 38.4299 22.483 38.1601C22.3383 37.7802 21.9561 37.7242 21.6982 38.0082C20.9148 38.8903 19.0682 39.8646 17.7643 39.9794C17.4534 40.013 17.297 40.3963 17.4806 40.6553C17.6026 40.7945 19.2571 43.3263 19.2571 43.3263Z" fill="white"/>
</mask>
<g mask="url(#mask3_1111_5220)">
<path d="M22.6381 43.0781C22.3888 43.2314 22.0888 43.3351 21.8189 43.4486C20.8275 41.8632 20.1838 40.8563 19.1513 39.191C19.3013 39.1391 20.2004 38.7276 20.4508 38.6746C21.5352 40.4899 22.1389 41.5173 22.9274 42.9042C22.8475 42.9452 22.7579 43.0165 22.6381 43.0781Z" fill="#AF0D1A"/>
</g>
<path d="M52.9128 41.9722C58.773 41.9593 62.4707 51.4912 61.0112 57.5326C59.7201 62.8822 56.0112 63.9903 53.0423 63.9903C50.0734 63.9903 46.4682 62.5511 45.0734 57.7398C43.4604 52.1683 47.4449 41.9852 52.9128 41.9722Z" fill="#F2A05B"/>
<path d="M48.4419 46.5079C47.7389 47.6307 47.0305 49.044 46.8788 50.2223C46.6013 52.3921 48.1977 52.6362 48.7545 51.5597C49.3113 50.4831 49.881 49.3936 50.7855 47.9489C52.036 45.953 54.0837 44.6156 53.0774 43.748C52.0711 42.8805 49.918 44.1476 48.4419 46.5079Z" fill="#FECC88"/>
<path d="M58.0868 49.5803C58.2932 49.5803 58.4604 49.4097 58.4604 49.1993C58.4604 48.9888 58.2932 48.8182 58.0868 48.8182C57.8804 48.8182 57.7131 48.9888 57.7131 49.1993C57.7131 49.4097 57.8804 49.5803 58.0868 49.5803Z" fill="#D47858"/>
<path d="M58.5069 58.6899C58.592 58.483 58.494 58.2466 58.2881 58.1619C58.0821 58.0772 57.8461 58.1762 57.761 58.3831C57.6759 58.59 57.7739 58.8264 57.9799 58.9111C58.1858 58.9959 58.4218 58.8968 58.5069 58.6899Z" fill="#D47858"/>
<path d="M47.6157 60.3115C47.695 60.1187 47.603 59.8982 47.4102 59.8189C47.2175 59.7397 46.997 59.8316 46.9177 60.0244C46.8384 60.2171 46.9304 60.4376 47.1231 60.5169C47.3159 60.5962 47.5364 60.5042 47.6157 60.3115Z" fill="#D47858"/>
<path d="M59.4733 53.155C59.7518 53.0107 59.8747 52.6952 59.7478 52.4502C59.6209 52.2053 59.2922 52.1238 59.0137 52.2681C58.7353 52.4124 58.6124 52.7279 58.7393 52.9728C58.8662 53.2177 59.1949 53.2993 59.4733 53.155Z" fill="#D47858"/>
<path d="M54.0849 58.1203C54.3634 57.976 54.4862 57.6604 54.3593 57.4155C54.2324 57.1706 53.9038 57.089 53.6253 57.2333C53.3468 57.3776 53.224 57.6932 53.3509 57.9381C53.4778 58.183 53.8064 58.2646 54.0849 58.1203Z" fill="#D47858"/>
<path d="M53.5553 60.7471C53.7611 60.4891 53.753 60.1406 53.5374 59.9686C53.3217 59.7966 52.9801 59.8663 52.7744 60.1243C52.5686 60.3823 52.5767 60.7308 52.7923 60.9028C53.008 61.0748 53.3496 61.0051 53.5553 60.7471Z" fill="#D47858"/>
<path d="M51.349 61.3586C51.5921 61.0853 51.5749 60.6733 51.3108 60.4384C51.0466 60.2035 50.6355 60.2347 50.3924 60.508C50.1494 60.7813 50.1665 61.1933 50.4307 61.4282C50.6948 61.6631 51.106 61.6319 51.349 61.3586Z" fill="#D47858"/>
<defs>
<radialGradient id="paint0_radial_1111_5220" cx="0" cy="0" r="1" gradientUnits="userSpaceOnUse" gradientTransform="translate(55.2233 9.98737) rotate(-15.8989) scale(49.7711 49.7711)">
<stop offset="0.5544" stop-color="#85BB41"/>
<stop offset="0.6141" stop-color="#A2C65F"/>
<stop offset="0.706" stop-color="#C9D487"/>
<stop offset="0.7788" stop-color="#E1DDA0"/>
<stop offset="0.8231" stop-color="#EAE0A9"/>
</radialGradient>
</defs>
</svg>
