<svg width="72" height="72" viewBox="0 0 72 72" fill="none" xmlns="http://www.w3.org/2000/svg">
<path d="M8.27271 38.1591C8.27271 37.707 8.45229 37.2734 8.77195 36.9538C9.09162 36.6341 9.52518 36.4545 9.97725 36.4545H47.4772C47.9293 36.4545 48.3629 36.6341 48.6825 36.9538C49.0022 37.2734 49.1818 37.707 49.1818 38.1591V64.2954C49.1818 64.7475 49.0022 65.1811 48.6825 65.5007C48.3629 65.8204 47.9293 66 47.4772 66H9.97725C9.52518 66 9.09162 65.8204 8.77195 65.5007C8.45229 65.1811 8.27271 64.7475 8.27271 64.2954V38.1591Z" fill="url(#paint0_linear_1111_5314)"/>
<path d="M15.0908 47.25C15.0908 46.7979 15.2704 46.3644 15.5901 46.0447C15.9097 45.7251 16.3433 45.5455 16.7954 45.5455H27.0226C27.4747 45.5455 27.9083 45.7251 28.2279 46.0447C28.5476 46.3644 28.7272 46.7979 28.7272 47.25V66H15.0908V47.25Z" fill="url(#paint1_linear_1111_5314)" fill-opacity="0.8"/>
<path d="M31 47.25C31 46.7979 31.1796 46.3644 31.4993 46.0447C31.8189 45.7251 32.2525 45.5455 32.7045 45.5455H40.6591C41.1112 45.5455 41.5447 45.7251 41.8644 46.0447C42.1841 46.3644 42.3636 46.7979 42.3636 47.25V55.2046C42.3636 55.6566 42.1841 56.0902 41.8644 56.4099C41.5447 56.7295 41.1112 56.9091 40.6591 56.9091H32.7045C32.2525 56.9091 31.8189 56.7295 31.4993 56.4099C31.1796 56.0902 31 55.6566 31 55.2046V47.25Z" fill="url(#paint2_linear_1111_5314)" fill-opacity="0.8"/>
<path d="M33.2727 29.6364L31 20.5455H42.1568C42.4725 20.5457 42.7847 20.6117 43.0735 20.7393C43.3623 20.8668 43.6213 21.0532 43.8341 21.2864L50.8614 28.9864C51.2432 29.4052 51.4547 29.9515 51.4545 30.5182V34.1818C51.4545 36.5929 50.4968 38.9052 48.7919 40.6101C47.087 42.315 44.7747 43.2727 42.3636 43.2727C39.9526 43.2727 37.6403 42.315 35.9354 40.6101C34.2305 38.9052 33.2727 36.5929 33.2727 34.1818V29.6364Z" fill="url(#paint3_linear_1111_5314)"/>
<path d="M6 30.5182C5.99983 29.9515 6.21139 29.4052 6.59318 28.9864L13.6205 21.2864C13.833 21.0534 14.0916 20.8673 14.38 20.7397C14.6684 20.6122 14.9801 20.546 15.2955 20.5455H26.4545L24.1818 29.6364V34.1818C24.1818 36.5929 23.224 38.9052 21.5192 40.6101C19.8143 42.315 17.502 43.2727 15.0909 43.2727C12.6799 43.2727 10.3675 42.315 8.66267 40.6101C6.95779 38.9052 6 36.5929 6 34.1818V30.5182Z" fill="url(#paint4_linear_1111_5314)"/>
<path d="M19.6365 30.0364C19.6382 29.7726 19.6859 29.5111 19.7774 29.2637L23.0456 20.5455H34.4092L37.6774 29.2614C37.7691 29.5095 37.8168 29.7718 37.8183 30.0364V34.1818C37.8183 36.5929 36.8605 38.9052 35.1556 40.6101C33.4508 42.315 31.1384 43.2727 28.7274 43.2727C26.3163 43.2727 24.004 42.315 22.2991 40.6101C20.5943 38.9052 19.6365 36.5929 19.6365 34.1818V30.0364Z" fill="url(#paint5_linear_1111_5314)"/>
<path d="M46.9636 6.35669C47.0897 6.16929 47.3649 6.16929 47.491 6.35669L49.2146 8.9231C50.1397 10.3007 51.9405 10.7834 53.4304 10.053L56.2068 8.69165C56.4098 8.59241 56.6485 8.7308 56.6638 8.9563L56.8738 12.0403C56.9861 13.6958 58.3042 15.0139 59.9597 15.1262L63.0437 15.3362C63.2692 15.3515 63.4076 15.5902 63.3083 15.7932L61.947 18.5696C61.2166 20.0595 61.6993 21.8603 63.0769 22.7854L65.6433 24.509C65.8307 24.6351 65.8307 24.9103 65.6433 25.0364L63.0769 26.76C61.6993 27.6851 61.2166 29.4859 61.947 30.9758L63.3083 33.7522C63.4076 33.9552 63.2692 34.1939 63.0437 34.2092L59.9597 34.4192C58.3042 34.5315 56.9861 35.8496 56.8738 37.5051L56.6638 40.5891C56.6485 40.8146 56.4098 40.953 56.2068 40.8538L53.4304 39.4924C51.9405 38.762 50.1397 39.2448 49.2146 40.6223L47.491 43.1887C47.3649 43.3761 47.0897 43.3761 46.9636 43.1887L45.24 40.6223C44.3149 39.2448 42.5141 38.762 41.0242 39.4924L38.2478 40.8538C38.0448 40.953 37.8061 40.8146 37.7908 40.5891L37.5808 37.5051C37.4685 35.8496 36.1504 34.5315 34.4949 34.4192L31.4109 34.2092C31.1854 34.1939 31.047 33.9552 31.1462 33.7522L32.5076 30.9758C33.238 29.4859 32.7552 27.6851 31.3777 26.76L28.8113 25.0364C28.6239 24.9103 28.6239 24.6351 28.8113 24.509L31.3777 22.7854C32.7552 21.8603 33.238 20.0595 32.5076 18.5696L31.1462 15.7932C31.047 15.5902 31.1854 15.3515 31.4109 15.3362L34.4949 15.1262C36.1504 15.0139 37.4685 13.6958 37.5808 12.0403L37.7908 8.9563C37.8061 8.73081 38.0448 8.59241 38.2478 8.69165L41.0242 10.053C42.5141 10.7834 44.3149 10.3007 45.24 8.9231L46.9636 6.35669Z" fill="#FFF6E7" stroke="#FFCB75" stroke-width="3"/>
<path d="M45.0566 16.44C45.0566 14.4844 46.4888 14.0239 47.2899 14.038C48.9171 14.038 49.3682 15.3927 49.5024 16.1136C49.6696 17.0104 49.5064 19.1541 49.4309 20.1386L49.4289 20.1663C49.5428 20.1404 49.6593 20.1275 49.7761 20.1278H52.3777C53.4296 20.1278 54.286 20.9842 54.286 22.0362C54.286 22.5797 54.1114 23.0713 53.7702 23.4185C54.4742 23.7294 54.9603 24.3815 54.9603 25.134C54.9603 25.8238 54.6481 26.4287 54.0406 26.7645C54.5955 27.1091 54.9603 27.6856 54.9603 28.337C54.9603 29.0835 54.5942 29.7322 53.8828 30.0451C54.1356 30.3054 54.286 30.6925 54.286 31.2548C54.286 32.1854 53.6326 32.942 52.3777 32.942H49.7761C49.7456 32.942 49.7155 32.9413 49.6858 32.94H47.5745C40.5359 33.056 40.1252 28.4935 40.1252 26.6391C40.1252 23.1623 41.6748 22.1286 43.0518 21.2101C43.7032 20.7759 44.3162 20.3672 44.7086 19.7381C45.0377 19.2101 45.0559 18.7266 45.0559 16.4406" fill="#FFC83D"/>
<path d="M49.5661 20.1279C48.8783 20.1488 46.8688 20.5285 46.8688 22.13C46.8688 22.9729 47.1851 23.4469 47.564 23.7106C47.1851 23.8792 46.8479 24.505 46.8479 25.2804C46.8479 26.1436 47.564 26.7761 47.564 26.7761C47.564 26.7761 46.8479 27.472 46.8479 28.3041C46.8479 28.9326 47.123 29.3965 47.564 29.7121C47.3253 29.8469 46.8479 30.3142 46.8479 31.1066C46.8479 32.0513 47.7299 32.843 49.4575 32.9138C48.616 32.758 48.2067 31.9866 48.2067 31.2549C48.2067 31.0135 48.297 30.6251 48.5216 30.2826H52.2634C52.3528 30.2826 52.4386 30.247 52.5018 30.1838C52.565 30.1206 52.6005 30.0348 52.6005 29.9454C52.6005 29.856 52.565 29.7702 52.5018 29.707C52.4386 29.6438 52.3528 29.6082 52.2634 29.6082H48.6146C48.3415 29.2508 48.2067 28.7869 48.2067 28.3371C48.2067 28.0566 48.3125 27.6035 48.5748 27.2083H52.2634C52.3528 27.2083 52.4386 27.1728 52.5018 27.1096C52.565 27.0463 52.6005 26.9606 52.6005 26.8712C52.6005 26.7817 52.565 26.696 52.5018 26.6327C52.4386 26.5695 52.3528 26.534 52.2634 26.534H48.7232C48.3773 26.1631 48.2067 25.6405 48.2067 25.1341C48.2067 24.8934 48.2849 24.5238 48.4737 24.1739H52.2634C52.3528 24.1739 52.4386 24.1383 52.5018 24.0751C52.565 24.0119 52.6005 23.9261 52.6005 23.8367C52.6005 23.7473 52.565 23.6615 52.5018 23.5983C52.4386 23.5351 52.3528 23.4995 52.2634 23.4995H48.7751C48.3948 23.097 48.2067 22.4988 48.2067 22.0363C48.2067 21.4901 48.5054 20.283 49.5661 20.1414V20.1279Z" fill="#D67D00"/>
<defs>
<linearGradient id="paint0_linear_1111_5314" x1="18.5" y1="39.1409" x2="23.4636" y2="67.4977" gradientUnits="userSpaceOnUse">
<stop offset="0.312" stop-color="#29C3FF"/>
<stop offset="1" stop-color="#0094F0"/>
</linearGradient>
<linearGradient id="paint1_linear_1111_5314" x1="15.5772" y1="49.3818" x2="28.8022" y2="58.5409" gradientUnits="userSpaceOnUse">
<stop stop-color="#0067BF"/>
<stop offset="1" stop-color="#003580"/>
</linearGradient>
<linearGradient id="paint2_linear_1111_5314" x1="34.4091" y1="44.2818" x2="38.5614" y2="59.2273" gradientUnits="userSpaceOnUse">
<stop stop-color="#FDFDFD"/>
<stop offset="1" stop-color="#B3E0FF"/>
</linearGradient>
<linearGradient id="paint3_linear_1111_5314" x1="40.4409" y1="20.5455" x2="40.4409" y2="30.4887" gradientUnits="userSpaceOnUse">
<stop stop-color="#FB6F7B"/>
<stop offset="1" stop-color="#D7257D"/>
</linearGradient>
<linearGradient id="paint4_linear_1111_5314" x1="15.4409" y1="20.5455" x2="15.4409" y2="30.4887" gradientUnits="userSpaceOnUse">
<stop stop-color="#FB6F7B"/>
<stop offset="1" stop-color="#D7257D"/>
</linearGradient>
<linearGradient id="paint5_linear_1111_5314" x1="28.7274" y1="20.5455" x2="28.7274" y2="30.4887" gradientUnits="userSpaceOnUse">
<stop offset="0.304" stop-color="#FF9FB2"/>
<stop offset="1" stop-color="#F97DBD"/>
</linearGradient>
</defs>
</svg>
