<svg width="72" height="72" viewBox="0 0 72 72" fill="none" xmlns="http://www.w3.org/2000/svg">
<path d="M51.0727 38.2684C51.0727 38.2684 64.9641 35.5411 65.6234 40.7859C66.008 43.8779 65.039 49.5623 59.8041 54.2327C55.4584 58.1089 48.1956 61.3707 36.2124 61.1509C26.447 60.976 19.8035 58.6333 15.293 56.0409C7.74043 51.7002 6.2469 45.816 6.64151 42.1246C7.20595 36.8298 15.6926 34.4022 16.0772 34.1824L51.0727 38.2684Z" fill="#F1B34F"/>
<path d="M7.6604 43.5382C7.6604 43.5382 15.6725 56.8351 36.522 56.905C59.0947 56.9849 65.9929 43.5032 65.6183 40.7809C64.909 35.561 52.8809 34.4971 52.8809 34.4971L24.1791 41.2604L7.6604 39.4472V43.5382Z" fill="#FADFB1"/>
<path d="M7.74537 38.7279C7.74537 38.7279 6.44665 40.2864 6.67642 43.2584C6.88122 45.8958 9.35878 49.782 13.6895 51.1856C17.5207 52.4294 20.333 51.0008 24.2991 52.2845C28.2652 53.5683 31.9216 57.4644 36.9816 57.1597C42.0416 56.855 44.7289 53.2386 48.3803 52.7091C53.8649 51.9149 56.4874 53.3885 60.6333 49.2975C65.2038 44.7869 65.2287 40.5861 65.2038 39.5421C65.1538 37.4342 63.6603 36.2953 63.6603 36.2953L13.3199 38.1385L7.74537 38.7279Z" fill="white"/>
<path d="M36.2923 10.7605C16.4918 10.7605 6.57153 21.1153 5.7923 32.9237C5.49259 37.4692 6.97114 40.4463 10.193 43.2835C15.8174 48.2286 26.0823 51.3255 36.6869 51.4404C48.0507 51.5653 56.6722 48.6881 63.2707 39.9817C65.4236 37.1445 65.6583 35.5311 65.7482 32.3742C66.023 22.474 57.1167 10.7605 36.2923 10.7605Z" fill="url(#paint0_radial_1111_5171)"/>
<path d="M26.1373 28.9825C25.9125 28.488 27.6508 27.8836 28.515 27.2542C29.464 26.5599 29.6389 25.7407 29.9835 25.6957C30.3282 25.6508 31.8417 26.1203 35.7329 26.1703C39.1495 26.2152 41.3124 25.3061 41.6121 25.5659C41.9168 25.8256 42.3463 26.5599 43.3004 27.5139C44.1246 28.3381 45.0736 28.8976 45.1186 29.2023C45.1636 29.507 42.9757 29.9715 42.5911 30.0564C42.2015 30.1414 29.7188 30.1064 29.7188 30.1064C29.7188 30.1064 28.9895 29.8916 28.3851 29.7218C27.7807 29.5419 26.3521 29.457 26.1373 28.9825Z" fill="#FCDE8C"/>
<path d="M35.8628 31.9646C38.0656 31.9646 39.2694 31.3203 40.748 30.7958C42.2914 30.2513 43.5602 29.8018 43.5602 29.8018C43.5602 29.8018 41.2674 27.4691 36.2074 27.4691C31.1474 27.4691 28.9446 29.8467 28.9446 29.8467C28.9446 29.8467 33.2703 31.9646 35.8628 31.9646Z" fill="white"/>
<path d="M22.6756 18.5128C22.0812 18.6477 22.0612 19.5568 21.8814 20.4159C21.5167 22.1442 22.3359 23.5429 23.8894 23.0983C25.6676 22.5888 25.263 20.8455 24.2191 19.6867C23.6097 19.0173 23.285 18.373 22.6756 18.5128Z" fill="#F5E5C7"/>
<path d="M31.0175 17.2891C30.8577 17.7186 29.454 18.0134 28.0254 17.8535C26.9665 17.7336 26.0774 16.6747 26.6418 15.4958C27.2162 14.302 28.6448 14.1621 29.6139 15.1112C30.6079 16.0853 31.1923 16.8145 31.0175 17.2891Z" fill="#F5E5C7"/>
<path d="M34.0792 16.5148C33.7395 16.4449 32.6256 17.3989 32.3809 18.4629C32.1012 19.6517 32.9004 20.1412 33.5597 20.2111C34.3739 20.2961 34.9633 19.6667 35.0133 18.8525C35.0532 18.0433 34.4438 16.5897 34.0792 16.5148Z" fill="#F5E5C7"/>
<path d="M16.8214 29.0325C17.0561 29.5969 17.9552 29.4521 18.8344 29.477C20.5976 29.527 21.8314 28.478 21.1221 27.0245C20.3079 25.3611 18.6595 26.0754 17.7105 27.3042C17.156 28.0235 16.5816 28.458 16.8214 29.0325Z" fill="#F5E5C7"/>
<path d="M10.7073 28.9475C10.0979 28.9176 9.84318 29.7917 9.44357 30.5759C8.63936 32.1444 9.05895 33.7128 10.6724 33.6929C12.5205 33.6729 12.5855 31.8796 11.8862 30.491C11.4766 29.6818 11.3317 28.9725 10.7073 28.9475Z" fill="#F5E5C7"/>
<path d="M56.0029 27.7238C56.6073 27.6488 56.7122 26.7447 56.982 25.9056C57.5114 24.2222 56.8371 22.7487 55.2487 23.0384C53.4255 23.3681 53.6602 25.1463 54.5843 26.4001C55.1238 27.1294 55.3835 27.7987 56.0029 27.7238Z" fill="#F5E5C7"/>
<path d="M23.16 36.8398C22.8703 36.63 21.9512 36.9048 21.132 37.2294C19.4937 37.8788 18.7744 39.3324 19.9982 40.3813C21.4018 41.5851 22.6356 40.2814 23.0252 38.7779C23.255 37.9038 23.5097 37.0946 23.16 36.8398Z" fill="#F5E5C7"/>
<path d="M20.278 35.1665C20.4179 34.8867 20.0432 34.1275 19.6686 33.5231C19.234 32.8188 18.7395 32.0995 18.0502 31.9047C15.8324 31.2803 15.0332 34.1075 16.5217 35.0116C17.0662 35.3413 17.6406 35.3613 18.275 35.3962C19.224 35.4362 20.1431 35.4362 20.278 35.1665Z" fill="#F5E5C7"/>
<path d="M15.2379 27.0195C15.148 27.5839 12.6755 28.0535 11.4117 27.2892C9.8982 26.3701 10.7124 24.2522 12.5156 24.407C14.0591 24.5469 15.3378 26.3801 15.2379 27.0195Z" fill="#F5E5C7"/>
<path d="M16.5167 23.9375C17.1012 24.0973 18.7895 22.8336 19.284 21.9145C19.6437 21.2451 19.9334 19.5818 18.7645 19.0573C17.4608 18.4729 16.3469 19.332 16.0172 20.406C15.5976 21.8246 15.9972 23.7976 16.5167 23.9375Z" fill="#F5E5C7"/>
<path d="M26.5067 30.8258C26.6016 31.2604 25.7625 33.638 23.8044 33.7279C22.4557 33.7879 21.2869 31.9746 22.9702 30.8008C24.249 29.9167 26.4418 30.5111 26.5067 30.8258Z" fill="#F5E5C7"/>
<path d="M28.1953 34.617C27.8107 34.2923 25.7877 35.7409 25.1783 36.7999C24.8187 37.4292 24.5689 38.5781 26.0574 39.2525C27.496 39.9068 28.2852 38.8029 28.4651 37.9038C28.6449 37.0047 28.49 34.8668 28.1953 34.617Z" fill="#F5E5C7"/>
<path d="M30.2232 41.76C30.7177 42.6841 33.2802 42.2844 33.8896 42.0996C34.7687 41.8299 36.0125 41.0107 35.2183 39.3074C34.5639 37.9137 32.8556 38.2035 31.8216 39.0826C30.9275 39.8369 29.8835 41.1306 30.2232 41.76Z" fill="#F5E5C7"/>
<path d="M38.4799 38.4982C37.9505 38.8878 38.3701 41.2704 38.6847 41.9847C39.0893 42.9088 40.3931 43.2685 41.2722 42.5941C42.2862 41.8149 42.1263 40.5262 41.477 39.8269C40.9825 39.3024 38.9944 38.1135 38.4799 38.4982Z" fill="#F5E5C7"/>
<path d="M42.2811 37.0346C42.0863 37.2094 40.348 37.3293 39.1092 36.2703C38.3949 35.6609 38.4149 34.2173 39.1342 33.6829C39.9234 33.0985 41.0024 33.2783 41.6967 34.2923C42.1312 34.9167 42.5059 36.8298 42.2811 37.0346Z" fill="#F5E5C7"/>
<path d="M44.9137 36.1804C45.2633 36.4851 47.4761 36.1105 48.3103 35.1464C48.7649 34.617 49.4142 33.4831 48.5351 32.6739C47.656 31.8647 46.622 32.0195 45.7229 33.1234C45.0535 33.9376 44.554 35.8657 44.9137 36.1804Z" fill="#F5E5C7"/>
<path d="M53.4851 29.542C53.3152 30.2213 50.8327 30.501 49.8386 30.0365C48.8246 29.562 49.0045 28.4181 49.2093 27.9236C49.4141 27.4291 49.9086 26.8446 51.2123 27.2043C52.5909 27.5839 53.5999 29.0924 53.4851 29.542Z" fill="#F5E5C7"/>
<path d="M50.0187 37.2344C49.4642 37.0795 49.1396 37.8388 48.7799 38.1784C48.3304 38.608 46.4422 40.7909 48.8498 41.3503C51.2625 41.9148 50.6031 39.2574 50.5132 38.7179C50.4533 38.3433 50.4233 37.3493 50.0187 37.2344Z" fill="#F5E5C7"/>
<path d="M52.6063 35.8208C52.4065 36.3952 53.5304 37.5291 54.0698 38.1835C54.6093 38.8378 55.8031 39.4422 56.4974 38.1385C57.1968 36.8348 56.1128 36.0256 55.1488 35.8008C54.1847 35.5711 52.7861 35.3013 52.6063 35.8208Z" fill="#F5E5C7"/>
<path d="M61.2276 31.1854C61.2276 31.57 59.8789 32.6489 58.3704 32.6939C57.2465 32.7288 56.4124 32.3192 56.4124 31.2103C56.4124 30.0864 57.4264 29.4571 58.6851 29.7268C59.4094 29.8767 61.2276 30.576 61.2276 31.1854Z" fill="#F5E5C7"/>
<path d="M58.6153 27.9236C58.7302 28.3731 60.0789 28.508 61.0429 28.533C62.012 28.5579 63.2008 28.2183 62.7512 26.8896C62.3017 25.5609 60.973 25.9005 60.4785 26.1453C59.9889 26.3901 58.4655 27.3142 58.6153 27.9236Z" fill="#F5E5C7"/>
<path d="M54.4094 19.0324C54.0048 19.6168 54.769 20.8306 55.4683 21.37C56.1677 21.9095 57.1317 22.2492 57.6962 21.3001C58.2606 20.356 57.2666 19.5019 56.6622 19.1173C56.0528 18.7426 54.804 18.4629 54.4094 19.0324Z" fill="#F5E5C7"/>
<path d="M52.1366 20.1362C51.8719 19.9714 50.4733 20.3261 49.6641 21.0603C48.8249 21.8196 48.5152 22.9285 49.5292 23.7177C50.5082 24.477 51.5722 23.7377 52.0017 22.7287C52.4063 21.7796 52.4363 20.3211 52.1366 20.1362Z" fill="#F5E5C7"/>
<path d="M41.2023 19.5068C41.472 19.1322 40.9775 17.1242 40.3481 16.3549C39.7187 15.5907 38.9295 15.296 38.0554 15.9503C37.3661 16.4648 37.1113 17.8634 38.1003 18.5827C39.1743 19.3719 40.9076 19.9114 41.2023 19.5068Z" fill="#F5E5C7"/>
<path d="M41.9868 16.3999C42.3215 16.6447 43.5403 16.4698 44.3694 15.9254C45.1986 15.3809 45.3235 14.5168 44.844 13.9223C44.2595 13.2031 43.3155 13.4728 42.6411 14.3519C42.0517 15.1162 41.5622 16.0852 41.9868 16.3999Z" fill="#F5E5C7"/>
<path d="M43.9897 19.3021C44.2595 20.0213 46.9618 19.8665 47.746 19.5268C48.5352 19.1872 49.0847 18.4729 48.6451 17.4339C48.1506 16.265 47.3714 16.2601 46.802 16.4199C45.6781 16.7396 43.725 18.5978 43.9897 19.3021Z" fill="#F5E5C7"/>
<defs>
<radialGradient id="paint0_radial_1111_5171" cx="0" cy="0" r="1" gradientUnits="userSpaceOnUse" gradientTransform="translate(36.0804 26.0536) rotate(-0.374469) scale(32.7564 21.3572)">
<stop offset="0.1616" stop-color="#F1B14A"/>
<stop offset="0.1688" stop-color="#F1B049"/>
<stop offset="0.3704" stop-color="#E89825"/>
<stop offset="0.5354" stop-color="#E28810"/>
<stop offset="0.6425" stop-color="#E08308"/>
<stop offset="0.7125" stop-color="#E1860D"/>
<stop offset="0.7924" stop-color="#E5901B"/>
<stop offset="0.877" stop-color="#EBA031"/>
<stop offset="0.947" stop-color="#F1B14A"/>
</radialGradient>
</defs>
</svg>
