<svg width="72" height="72" viewBox="0 0 72 72" fill="none" xmlns="http://www.w3.org/2000/svg">
<path d="M13.6194 48.1945L6.92454 44.7128L6.05908 47.2892C6.05908 47.2892 6.15856 51.8702 6.54652 55.1082C6.77532 57.0082 7.05386 60.1268 7.1981 60.48C7.48659 61.1863 8.16304 61.1415 8.88425 61.2062C9.60546 61.2708 63.1643 61.0072 63.7562 61.0072C64.3481 61.0072 64.8057 60.1517 64.94 59.4305C65.0743 58.7093 66.0591 49.244 66.0591 48.7167C66.0591 48.1895 65.9099 45.1554 65.9099 45.1554L62.9056 47.4036L13.6194 48.1945Z" fill="#64696C"/>
<path d="M9.48105 11.4623C7.90432 11.4623 7.51139 12.3179 7.31243 13.8946C7.11347 15.4713 5.99932 46.2895 6.06398 47.2097C6.12864 48.1298 6.65588 49.4429 8.62554 49.4429C10.5952 49.4429 62.9056 49.1147 64.0247 49.1147C65.1438 49.1147 66.064 48.5228 65.9944 46.8167C65.9247 45.1107 64.2833 13.7603 64.0894 12.4472C63.8954 11.1341 63.3681 10.9998 62.1844 10.9351C60.9807 10.8705 10.6002 11.4623 9.48105 11.4623Z" fill="#505152"/>
<path d="M29.9187 13.7603C29.9187 13.7603 12.8334 14.0239 11.9779 13.9592C11.1224 13.8945 10.2668 14.3521 10.2022 15.9289C10.1375 17.5056 9.48097 44.0562 9.48097 44.8421C9.48097 45.628 9.41631 47.0107 11.3213 47.0107C13.2263 47.0107 30.3763 46.8814 30.3763 46.8814L29.9187 13.7603Z" fill="#A94230"/>
<path d="M32.2914 32.104L46.094 31.92L46.4173 46.7322L32.2019 46.8715L32.2914 32.104Z" fill="#A94230"/>
<path d="M48.2478 32.0145L61.9608 31.8752L62.4632 44.9018L51.9185 46.7819H48.5711L48.2478 32.0145Z" fill="#A94230"/>
<path d="M48.2026 29.627L48.0186 13.4867C48.0186 13.4867 59.4834 13.2579 59.9857 13.2579C60.4881 13.2579 61.5923 13.2132 61.6371 14.5412C61.6818 15.8692 61.9056 29.4579 61.9056 29.4579L48.2026 29.627Z" fill="#A94230"/>
<path d="M46.1387 18.2567H32.1521V27.0157H46.1387V18.2567Z" fill="#A94230"/>
<path d="M15.8177 15.9985C14.6737 16.0483 11.8684 14.9093 10.9383 17.5305C10.2121 19.5847 10.998 21.052 11.3661 22.5193C11.7341 23.9866 11.6148 26.0309 11.2915 27.3042C11.0477 28.2442 10.5454 29.7861 10.6001 31.1192C10.6846 33.2082 11.3412 34.2229 11.5252 35.0933C11.7093 35.9637 11.7292 37.1127 11.3362 38.386C10.9333 39.6792 10.9234 42.7879 11.1969 43.8871C11.4705 44.9863 12.0226 45.8568 14.4548 45.9065C16.8871 45.9563 25.3228 45.8618 26.606 45.7673C27.8893 45.6727 29.3964 45.2151 29.5406 41.7782C29.7495 36.8938 28.3966 36.2771 28.6702 34.4865C28.9438 32.6959 29.7247 31.5071 29.7694 29.4877C29.8142 27.4683 28.5757 26.5979 28.6702 24.1209C28.7647 21.6439 29.9982 19.4902 29.4511 17.4708C28.904 15.4514 27.2775 15.4365 26.4071 15.4365C25.5367 15.4365 24.8055 15.7548 23.8406 15.7648C21.9256 15.7797 22.1196 15.2773 20.1848 15.1977C18.2947 15.1281 18.1206 15.8991 15.8177 15.9985Z" fill="#FEFFFE"/>
<path d="M20.3989 27.5777C18.0861 27.6225 17.2256 30.5024 17.3997 31.4176C17.6533 32.7406 18.5138 32.7257 20.5382 32.7705C22.5626 32.8202 23.2589 32.4671 23.3584 31.2733C23.4628 30.1443 22.7615 27.528 20.3989 27.5777Z" fill="#EC5F32"/>
<path d="M48.4416 29.622C48.4665 29.622 61.6722 29.4628 61.6722 29.4628C61.6722 29.4628 62.0054 29.1047 61.9855 28.7217C61.9407 27.8463 61.2195 28.0453 61.2892 27.3489C61.3588 26.6526 62.1646 26.6725 62.1646 25.5285C62.1646 24.3795 61.1996 24.6083 61.1748 23.6832C61.1499 22.8525 62.0949 23.0764 61.9606 21.7931C61.8164 20.4054 61.3687 20.7386 61.3538 19.903C61.329 18.7093 62.1646 18.8038 62.1198 17.8587C62.075 16.9137 61.2643 17.048 61.2643 16.3069C61.2643 15.5658 62.8311 15.0435 61.8263 13.8796C60.8365 12.7307 59.9363 14.1731 59.3991 14.1482C58.6978 14.1184 58.9514 13.0689 57.6881 13.0241C56.2257 12.9744 56.2506 14.3671 55.3702 14.3273C54.3158 14.2825 54.47 13.1336 53.1917 13.1584C51.7542 13.1833 51.7791 14.2577 51.033 14.2825C50.3367 14.3074 49.1578 13.0589 48.3123 14.0139C47.4568 14.9789 48.5859 15.7896 48.5859 16.486C48.5859 17.1823 47.5463 17.5802 47.6358 18.4009C47.795 19.7936 49.0086 19.0972 49.0086 20.1119C49.0086 20.9674 47.9094 21.1017 47.9542 22.2457C47.9989 23.4593 48.9191 23.2355 48.9191 24.2452C48.9191 25.0311 47.9194 24.7824 47.9741 26.1552C48.0188 27.2345 48.74 27.2345 48.7599 27.911C48.7848 28.6322 48.372 28.7018 48.4416 29.622Z" fill="#F8D4B5"/>
<path d="M32.177 16.6352C32.177 16.6352 32.0974 11.1788 32.2466 11.2236C32.5649 11.3181 34.833 13.6061 34.833 13.6061C34.833 13.6061 36.6535 11.2435 36.8922 11.2435C37.131 11.2435 38.832 13.5514 38.832 13.5514C38.832 13.5514 40.8614 11.2236 41.0752 11.2236C41.2891 11.2236 43.1344 13.5315 43.1344 13.5315C43.1344 13.5315 46.0193 11.139 46.1635 11.139C46.3078 11.139 46.1486 16.9187 46.1486 16.9187L39.1205 17.5255L32.177 16.6352Z" fill="#88B050"/>
<path d="M56.161 15.0287C52.4952 15.1331 51.6149 18.3214 51.6795 19.7141C51.7492 21.1068 53.0374 24.295 55.8228 24.2602C58.7126 24.2254 60.7121 22.7432 60.7121 19.5101C60.7121 16.5208 58.5037 14.959 56.161 15.0287Z" fill="#4D3730"/>
<path d="M50.2223 26.1602C50.2223 26.1602 49.9189 23.6136 49.8145 22.0169C49.715 20.4203 49.6802 18.3512 49.6802 18.3512L52.6695 18.1821L55.3504 24.4939L54.2959 26.19C54.2959 26.195 50.4909 26.2945 50.2223 26.1602Z" fill="#EC5F32"/>
<path d="M50.6301 27.8563C50.6997 28.2293 53.2414 29.5673 53.2414 29.5673L59.3045 29.4977C59.3045 29.4977 59.4886 26.5332 59.4886 25.6528C59.4886 24.7725 59.792 23.345 58.8121 23.3101C57.8273 23.2753 54.0621 23.3798 53.8233 23.3798C53.5796 23.3748 50.5605 27.4832 50.6301 27.8563Z" fill="#FFFEFE"/>
<path d="M34.1366 18.2467L32.1669 18.769L32.157 19.8582L32.9279 20.1467C32.9279 20.1467 32.7887 20.2064 32.5101 20.3656C32.2316 20.5297 32.157 20.6939 32.157 20.6939L32.162 24.658C32.162 24.658 32.5648 24.8819 32.729 24.9615C32.923 25.051 33.2164 25.1355 33.2164 25.1355C33.2164 25.1355 32.7688 25.3842 32.5549 25.5086C32.351 25.628 32.157 25.7523 32.157 25.7523L32.1719 29.5424L46.1585 29.5374L46.1386 26.1204C46.1386 26.1204 46.059 25.802 45.7506 25.5334C45.5815 25.3842 45.1438 25.0709 45.1438 25.0709C45.1438 25.0709 45.5467 24.8968 45.7506 24.7525C45.9545 24.6083 46.1485 24.4093 46.1485 24.4093L46.1286 20.8331C46.1286 20.8331 46.0292 20.5546 45.6959 20.3457C45.4671 20.2014 45.1786 20.1169 45.1786 20.1169C45.1786 20.1169 45.6661 19.7687 45.8401 19.5996C46.0142 19.4255 46.1436 19.2315 46.1436 19.2315L46.1485 18.2517L34.1366 18.2467Z" fill="#A12422"/>
<path d="M32.1719 18.769L32.1818 16.6302C32.1818 16.6302 32.8732 15.4862 38.8916 15.5161C44.915 15.5459 45.671 16.2572 45.8899 16.4661C46.1386 16.7048 46.1485 16.8988 46.1485 16.8988L46.1336 18.2517C46.1336 18.2517 45.0791 19.2913 43.2636 19.3211C41.4482 19.3509 36.8672 19.6693 34.5643 19.4355C33.0373 19.2813 32.1719 18.769 32.1719 18.769Z" fill="#DD733F"/>
<path d="M32.1472 21.8279V23.5588C32.1472 23.5588 33.0425 24.3348 34.3656 24.3945C35.6886 24.4541 41.2494 24.6233 43.239 24.4243C45.2285 24.2253 46.1288 23.2156 46.1288 23.2156V22.1264C46.1288 22.1264 44.9102 20.5347 42.2293 20.5646C39.5484 20.5944 35.9473 20.6093 34.6242 20.6491C32.7839 20.7038 32.1472 21.8279 32.1472 21.8279Z" fill="#DD733F"/>
<path d="M32.1521 27.0157C32.1521 27.0157 33.2961 25.5136 35.6885 25.5136C38.081 25.5136 42.1695 25.4539 43.8407 25.6877C45.512 25.9165 46.1387 26.7571 46.1387 26.7571L46.1486 29.0301L32.172 29.0699L32.1521 27.0157Z" fill="#DD733F"/>
<path d="M38.2053 15.1281C37.3747 15.1082 36.8027 15.526 36.0566 16.297C35.3951 16.9734 34.6241 18.6795 35.1713 18.8038C35.5841 18.8983 36.0964 17.7792 37.131 16.8441C37.9218 16.1279 39.5433 15.158 38.2053 15.1281Z" fill="#A12422"/>
<path d="M42.6219 15.3171C42.0947 15.2674 41.4928 15.5609 40.7219 16.4661C39.9509 17.3714 39.4237 18.6894 39.8564 18.7839C40.2892 18.8784 41.0352 17.7295 41.7963 16.9187C42.602 16.0582 43.8952 15.4315 42.6219 15.3171Z" fill="#A12422"/>
<path d="M35.6486 24.0164C35.9222 24.0861 36.6285 22.5093 37.2104 21.8329C37.7924 21.1564 38.623 20.5695 38.4738 20.4004C38.3246 20.2313 37.7576 20.0025 37.0811 20.4203C36.4047 20.8331 35.7979 21.6837 35.574 22.3402C35.3452 23.0017 35.2706 23.9219 35.6486 24.0164Z" fill="#A12422"/>
<path d="M41.5229 20.495C41.2195 20.7337 40.7519 21.3803 40.4286 22.0965C40.1053 22.8128 40.1103 23.8474 40.4485 23.8871C40.7868 23.9269 41.1996 22.6238 41.8213 21.9075C42.4431 21.1913 43.214 20.7586 43.2339 20.4751C43.2588 20.1965 42.4082 19.7986 41.5229 20.495Z" fill="#A12422"/>
<path d="M37.3597 24.7178C36.5788 24.9913 36.156 25.7175 35.7382 26.5631C35.3304 27.3987 35.3602 28.6521 35.6437 28.6521C36.0765 28.6521 36.2655 27.4832 36.8673 26.5631C37.3647 25.807 38.5634 25.1306 38.3943 24.8869C38.2252 24.6431 37.6781 24.6034 37.3597 24.7178Z" fill="#A12422"/>
<path d="M40.523 26.6079C40.1997 27.2296 39.9012 28.5676 40.3141 28.6223C40.5976 28.6621 41.2492 27.16 41.7266 26.5681C42.3683 25.7772 42.9701 25.2848 43.0099 25.1555C43.0497 25.0212 43.0298 24.683 42.428 24.7029C41.8261 24.7228 41.7018 25.0311 41.3735 25.3445C41.0701 25.628 40.7866 26.1005 40.523 26.6079Z" fill="#A12422"/>
<path d="M32.2119 45.7722C32.2119 45.7722 32.3462 46.0905 32.585 46.3342C32.8138 46.563 33.1669 46.8664 33.1669 46.8664L38.0015 46.8416C38.0015 46.8416 38.6332 46.6128 39.1157 45.4738C39.4638 44.6481 39.3445 37.7045 39.3445 36.8689C39.3445 36.0333 38.7377 33.1236 35.7235 33.1236C32.7093 33.1236 32.2567 35.6056 32.2567 35.6056L32.2119 45.7722Z" fill="#737F3F"/>
<path d="M32.2466 38.0179C32.2466 38.0179 38.6529 44.0562 38.9663 44.285C39.4488 44.6381 39.5731 44.3596 39.598 44.0562C39.6229 43.7528 39.3941 43.5489 39.1951 43.3201C38.9912 43.0913 32.2516 36.864 32.2516 36.864L32.2466 38.0179Z" fill="#E3DDA6"/>
<path d="M34.9873 33.1236L35.3454 46.8366H36.1313L35.8528 33.0739C35.8528 33.0739 35.609 33.044 35.43 33.054C35.2559 33.0639 34.9873 33.1236 34.9873 33.1236Z" fill="#E3DDA6"/>
<path d="M38.9565 35.0187L32.2169 44.4392L32.2119 45.7722L39.2798 35.9587C39.2798 35.9587 39.2251 35.7349 39.1604 35.5509C39.1007 35.3669 38.9565 35.0187 38.9565 35.0187Z" fill="#E3DDA6"/>
<path d="M35.5592 40.8083L34.4898 41.0271C34.4898 41.0271 33.2165 41.6886 33.0125 41.5892C32.8086 41.4897 32.6544 41.047 32.6544 40.8232C32.6544 40.5993 32.6395 40.1766 32.9429 40.1268C33.2463 40.0771 35.2508 40.0572 35.2508 40.0572L36.2854 39.6991C36.2854 39.6991 37.5089 38.8684 37.8123 39.0027C38.1157 39.137 38.1705 39.5449 38.1854 39.7488C38.2003 39.9677 38.2351 40.4601 38.0859 40.6342C37.9317 40.8033 36.3003 40.7038 36.3003 40.7038L35.5592 40.8083Z" fill="#E3DDA6"/>
<path d="M46.2132 37.0232L46.2629 40.1169C46.2629 40.1169 45.3974 42.7829 42.1495 42.4447C38.9065 42.1065 38.807 39.3211 38.9065 38.0776C39.0259 36.6004 40.1649 34.8645 42.7812 34.8993C45.3626 34.9292 46.2132 37.0232 46.2132 37.0232Z" fill="#EAB554"/>
<path d="M41.662 40.1965C41.662 40.1965 42.0649 38.2218 44.1738 38.6844C46.2629 39.142 45.5815 41.231 45.5815 41.231C45.5815 41.231 47.1632 41.1117 47.2974 43.0167C47.4417 45.0062 45.6312 45.1057 45.6312 45.1057C45.6312 45.1057 45.7506 45.4439 45.6312 45.9562C45.5118 46.4636 45.2233 46.7222 45.2233 46.7222L42.1992 46.7719C42.1992 46.7719 42.0798 46.6526 42.045 46.5332C42.0102 46.4138 41.9754 46.2298 41.9754 46.2298C41.9754 46.2298 40.5479 47.5379 39.1701 46.1452C37.7924 44.7525 39.4437 43.2554 39.4437 43.2554C39.4437 43.2554 37.7774 41.9821 39.1204 40.3855C40.2743 39.0226 41.662 40.1965 41.662 40.1965Z" fill="#E38130"/>
<path d="M51.0678 39.2614L49.4364 38.764L48.3918 38.2268L48.3123 35.0286C48.3123 35.0286 48.4963 33.4121 49.5955 32.9843C50.6947 32.5566 52.9479 32.5118 55.0419 32.477C57.1359 32.4422 59.5234 32.4521 60.8166 32.9793C61.6472 33.3176 62.0402 34.0786 62.0402 34.0786L62.1645 37.5553C62.1645 37.5553 61.2792 38.759 59.9661 39.1171C58.653 39.4752 51.0678 39.2614 51.0678 39.2614Z" fill="#F2C548"/>
<path d="M48.377 37.431C48.377 37.431 49.0484 38.4705 49.9189 38.6645C50.7893 38.8585 51.5403 38.8088 51.5403 38.8088C51.5403 38.8088 49.9935 38.3611 49.6751 37.1127C49.4016 36.0234 49.506 34.4019 50.7395 33.9443C51.9731 33.4867 54.8778 33.5066 56.2805 33.5315C57.6831 33.5563 59.6677 33.5066 60.2745 34.1582C60.8813 34.8098 61.0255 36.1925 59.8169 37.1077C58.6082 38.0279 54.0124 38.0279 52.754 37.5902C52.0029 37.3315 51.1574 36.4909 51.9532 35.4116C52.6495 34.4666 57.2504 34.954 57.6632 35.0485C58.076 35.143 58.1954 35.7001 57.6383 35.7498C57.0813 35.7996 53.321 35.6056 52.7391 35.8692C52.1571 36.1328 52.7788 36.7446 53.0673 36.8789C53.6393 37.1425 55.1464 37.1773 56.6485 37.0281C58.1506 36.8839 59.7473 36.5904 59.792 35.526C59.8418 34.4616 58.6331 34.2925 55.9472 34.2676C53.2613 34.2427 51.8736 34.3124 51.1375 34.7252C50.7296 34.954 50.2372 35.8195 50.5505 36.7595C50.8639 37.7046 52.6296 38.5999 53.2613 38.6247C53.893 38.6496 58.6082 38.7143 59.7721 38.4805C61.5826 38.1124 62.1447 36.5755 62.1447 36.5755L62.1994 38.0925C62.1994 38.0925 62.2143 39.4007 60.7868 39.9329C59.3593 40.4651 50.2322 40.296 49.7796 40.1517C49.2474 39.9826 48.9788 39.714 48.74 39.4753C48.4963 39.2315 48.4018 38.8237 48.4018 38.8237L48.377 37.431Z" fill="#F2AB47"/>
<path d="M60.7817 46.0458L50.2321 46.2647L48.5409 45.4191L48.4514 41.4897C48.4514 41.4897 48.6006 40.5447 49.5059 40.2164C50.3763 39.9031 51.8287 39.9031 55.0468 39.8285C58.2649 39.7539 59.2796 39.8782 60.5131 40.2413C61.7466 40.6044 62.3286 41.6788 62.3286 41.6788L62.4629 44.9018L60.7817 46.0458Z" fill="#F2C548"/>
<path d="M62.4432 44.2254C62.4432 44.2254 62.4631 45.1057 62.488 45.3892C62.5079 45.6728 62.2244 46.7521 61.3887 46.8366C60.5531 46.9262 50.0184 46.772 50.0184 46.772C50.0184 46.772 49.342 46.8267 48.8943 46.4586C48.5412 46.1751 48.5511 45.8568 48.5511 45.8568L48.5312 44.9366C48.5312 44.9366 48.9491 45.4589 49.2475 45.6081C49.6404 45.8071 50.0184 45.7623 50.0184 45.7623C50.0184 45.7623 49.337 45.255 49.4713 43.8722C49.6454 42.0269 50.7446 41.2609 52.3462 41.1515C53.8682 41.047 57.7479 41.1614 58.7377 41.1963C60.0309 41.241 60.6029 42.3154 60.5382 43.2604C60.4736 44.2055 59.8568 44.7327 58.3845 44.9068C56.9122 45.0809 53.2266 45.0162 52.6297 44.9963C52.0378 44.9764 51.4161 44.6233 51.4658 43.723C51.5106 42.9123 52.2119 42.8426 52.8933 42.8227C53.5748 42.8028 57.2405 42.8426 57.6136 42.8675C57.9866 42.8874 58.1607 43.5041 57.4395 43.524C56.7133 43.5439 52.764 43.5589 52.5203 43.5439C52.0826 43.524 52.0577 44.2005 52.5402 44.2453C52.8486 44.2751 58.2502 44.1806 58.6233 44.1159C58.9963 44.0513 59.7822 43.8523 59.7673 43.1062C59.7474 42.1861 58.4492 41.9622 57.529 41.9423C56.6088 41.9224 52.9182 41.8528 52.4358 41.8976C51.9533 41.9423 50.3915 42.2905 50.2423 44.0264C50.1378 45.2102 50.9237 45.7374 50.9237 45.7374C50.9237 45.7374 59.817 45.7374 60.389 45.6728C60.961 45.6081 61.3788 45.4738 61.6623 45.2351C61.9458 44.9963 62.4432 44.2254 62.4432 44.2254Z" fill="#F2AB47"/>
</svg>
