<svg width="72" height="72" viewBox="0 0 72 72" fill="none" xmlns="http://www.w3.org/2000/svg">
<path d="M36.5013 48.2808C23.3073 48.2808 12.3123 44.1827 9.81348 38.7852C14.4114 52.8787 11.6127 65.9728 36.5013 65.9728C61.39 65.9728 58.5913 52.8787 63.1892 38.7852C60.6903 44.1827 49.6953 48.2808 36.5013 48.2808Z" fill="#3E4347"/>
<path d="M24.2075 24.4916C38.3011 20.5934 70.6863 26.4907 63.5896 39.8846C67.4878 44.2826 68.8872 48.9805 50.2956 48.6806C21.7086 55.3776 -1.88066 41.4839 8.51461 30.9886C6.01575 25.891 11.5132 23.2922 24.2075 24.4916Z" fill="#6F7980"/>
<path d="M36.5013 47.6811C48.9956 47.6811 59.3909 43.7828 61.7898 38.6851C61.9897 38.1854 62.0897 37.6856 62.2896 37.1858C62.2896 36.886 62.3895 36.6861 62.3895 36.3862C62.3895 30.189 50.7948 25.1913 36.6013 25.1913C22.4077 25.1913 10.813 30.189 10.813 36.3862C10.813 36.6861 10.813 36.886 10.9129 37.1858C11.0129 37.6856 11.2128 38.1854 11.4127 38.6851C13.6117 43.7828 24.007 47.6811 36.5013 47.6811Z" fill="#3E4347"/>
<path d="M36.5017 47.681C48.996 47.681 59.3913 43.7828 61.7902 38.6851C61.7902 38.4852 61.8901 38.3852 61.8901 38.1853C59.7911 32.8877 49.1959 28.8895 36.4017 28.8895C23.6076 28.8895 13.0124 32.8877 10.9133 38.1853C11.0133 38.3852 11.0133 38.4852 11.0133 38.6851C13.6121 43.7828 24.0074 47.681 36.5017 47.681Z" fill="#FBBF67"/>
<path d="M39.9994 34.3872C35.0017 34.2872 28.9044 38.2854 24.8063 37.9855C18.0094 37.4857 25.0062 40.7842 29.804 40.7842C33.0026 40.7842 35.2016 37.8856 36.9008 36.6861C39.2997 35.1868 45.197 34.4871 39.9994 34.3872Z" fill="#D33B23"/>
<path d="M25.2069 31.0887C23.9075 27.4903 16.4109 33.3877 22.808 34.6871C23.8075 34.887 26.3064 34.2873 25.2069 31.0887ZM39.7003 42.3836C38.101 37.9856 28.8052 45.2823 36.8016 46.7816C38.0011 46.9815 41.0997 46.2818 39.7003 42.3836ZM41.3995 29.7893C39.9002 26.1909 30.6044 32.0883 38.5008 33.3877C39.6003 33.4876 42.6989 32.8879 41.3995 29.7893ZM56.6926 33.6875C56.0928 29.7893 44.1982 31.9883 52.3945 36.0864C53.594 36.6862 57.1923 37.1859 56.6926 33.6875Z" fill="#FF8736"/>
<path d="M19.1092 37.1858C18.0097 35.6865 16.4104 33.6874 15.8107 34.687C14.9111 36.0863 14.6112 38.8851 15.3109 38.985C20.3086 39.9846 19.9088 38.3853 19.1092 37.1858ZM46.5967 34.3871C44.7975 35.1868 43.698 34.587 42.8983 35.7865C40.9992 38.4853 47.4963 39.3848 48.6957 37.7856C49.5953 36.6861 47.7961 33.8873 46.5967 34.3871ZM48.096 41.0841C46.7966 40.4843 47.0964 42.4834 45.0973 40.8842C43.698 39.7847 40.6993 42.5834 42.6984 44.4825C44.8974 46.5816 45.4972 44.5825 46.3968 44.7824C48.2959 45.0823 51.5944 42.5834 48.096 41.0841ZM26.106 41.6838C24.9065 40.4843 23.0074 43.8828 23.7071 44.7824C25.2064 46.7815 30.6039 46.3817 32.0033 44.8823C33.8025 43.0832 29.0047 44.4825 26.106 41.6838Z" fill="#89664C"/>
<path d="M21.5079 40.6843C21.5079 40.6843 21.6078 41.8837 21.8077 42.3835C20.5083 41.8837 20.5083 39.5848 20.5083 39.5848C20.5083 39.5848 19.6087 40.0846 19.7087 40.9842C18.3093 39.7847 17.1099 40.3844 17.1099 40.3844C17.1099 40.3844 18.909 41.384 19.2089 42.0837C18.2094 42.1836 17.6096 42.4835 17.2098 43.2831C17.2098 43.2831 19.2089 42.2836 20.7082 42.9832C20.1085 43.483 20.4084 44.6825 20.4084 44.6825C22.8073 42.1836 24.3066 44.3826 25.4061 43.7829C24.5065 42.5834 23.2071 42.3835 23.2071 42.3835C22.7073 41.384 21.5079 40.6843 21.5079 40.6843ZM32.303 30.8887C31.1035 30.6888 29.904 31.2886 29.904 31.2886C29.904 31.2886 31.0035 31.7883 31.5033 31.9882C30.4038 32.8878 28.4047 31.6884 28.4047 31.6884C28.4047 31.6884 28.4047 32.6879 29.2044 33.0877C27.5051 33.6875 27.3052 35.0868 27.3052 35.0868C27.3052 35.0868 29.1044 34.0873 29.8041 34.1872C29.3043 35.0868 29.3043 35.7865 29.904 36.4862C29.904 36.4862 30.104 34.2872 31.5033 33.3876C31.6033 34.1872 32.8027 34.4871 32.8027 34.4871C31.9031 31.1886 34.6019 30.9887 34.6019 29.7892C33.2025 29.7892 32.303 30.8887 32.303 30.8887ZM55.5924 39.8847C56.0921 39.3849 58.1912 39.085 58.1912 39.085C58.1912 39.085 57.2916 38.0855 55.4924 38.5852C55.8922 37.7856 55.2925 36.986 55.2925 36.986C55.2925 36.986 54.3929 39.085 52.9935 39.085C53.3934 38.5852 53.8931 37.5857 53.8931 37.5857C53.8931 37.5857 52.4938 37.8856 51.6941 38.7852C51.6941 38.7852 50.3947 38.3853 49.1953 39.185C49.895 40.1845 52.1939 38.6852 53.3934 41.8837C53.3934 41.8837 54.093 40.8842 53.7932 40.1845C55.3924 40.0846 56.8918 41.7838 56.8918 41.7838C56.8918 40.8842 56.492 40.3844 55.5924 39.8847Z" fill="#699635"/>
<path opacity="0.6" d="M37.3015 15.3957C33.6032 11.5975 36.102 6 36.102 6C36.102 6 28.3056 13.3966 33.2034 18.4943C38.9008 24.3916 36.102 27.99 36.102 27.99C36.102 27.99 43.0989 21.393 37.3015 15.3957ZM26.3065 18.7942C23.5078 16.0954 25.4069 11.9973 25.4069 11.9973C25.4069 11.9973 19.6095 17.3948 23.3079 21.0931C27.6059 25.3912 25.4069 27.99 25.4069 27.99C25.4069 27.99 30.6045 23.1922 26.3065 18.7942ZM48.2965 18.7942C45.4978 16.0954 47.3969 11.9973 47.3969 11.9973C47.3969 11.9973 41.5995 17.3948 45.2979 21.0931C49.5959 25.3912 47.3969 27.99 47.3969 27.99C47.3969 27.99 52.5945 23.1922 48.2965 18.7942Z" fill="#A6AEB0"/>
</svg>
