<svg width="72" height="72" viewBox="0 0 72 72" fill="none" xmlns="http://www.w3.org/2000/svg">
<rect x="11.4546" y="26.2697" width="49.09" height="24.545" fill="#FFEEC9"/>
<path d="M35.9993 19.4344V9.00273H21.6541L19.0469 19.4344H35.9993ZM65.996 19.4344L61.4961 10.4454C61.2794 10.0128 60.947 9.64871 60.5359 9.39356C60.1247 9.1384 59.6509 9.00218 59.167 9H50.3445L52.9544 19.4344H65.996Z" fill="url(#paint0_linear_1111_5407)"/>
<path d="M21.6542 9.00281H12.8317C12.3476 9.00423 11.8734 9.13981 11.4618 9.39449C11.0502 9.64917 10.7172 10.013 10.4999 10.4455L6.00269 19.4344H19.0443L21.6542 9.00281ZM52.9518 19.4344L50.3446 9.00281H35.9994V19.4344H52.9518Z" fill="url(#paint1_linear_1111_5407)"/>
<path d="M52.9521 19.4345V27.2616C56.7648 31.557 63.7983 30.1198 65.6146 24.6708C65.8983 23.8253 66.0237 22.9335 65.9965 22.0445V19.4345H52.9521Z" fill="url(#paint2_linear_1111_5407)"/>
<path d="M6.00535 19.4345V22.0445C5.80899 27.788 11.9098 31.5897 16.9797 28.8843C17.7607 28.471 18.461 27.9204 19.0469 27.2589V19.4345H6.00535ZM35.9993 19.4345V28.928C40.7611 34.2461 49.3191 33.4033 52.9518 27.2589V19.4345H35.9993Z" fill="url(#paint3_linear_1111_5407)"/>
<path d="M19.0469 19.4345V27.2616C22.6823 33.4033 31.2376 34.2488 36.002 28.928V19.4372L19.0469 19.4345Z" fill="url(#paint4_linear_1111_5407)"/>
<path d="M63.3862 50.7348H8.61268C8.26983 50.7341 7.93022 50.801 7.61326 50.9317C7.29631 51.0624 7.00825 51.2543 6.76557 51.4965C6.52288 51.7387 6.33035 52.0263 6.19898 52.343C6.06762 52.6597 6 52.9992 6 53.342V61.1692C6 62.6064 7.16998 63.7764 8.60995 63.7764H63.3835C63.7261 63.7764 64.0654 63.7089 64.3819 63.5777C64.6984 63.4465 64.9859 63.2542 65.228 63.0118C65.4702 62.7694 65.6622 62.4816 65.793 62.165C65.9239 61.8484 65.9911 61.509 65.9907 61.1664V53.342C65.9907 52.6506 65.716 51.9874 65.2271 51.4984C64.7381 51.0095 64.0777 50.7348 63.3862 50.7348Z" fill="#C77F67"/>
<path d="M63.3862 50.7348H8.61268C8.26983 50.7341 7.93022 50.801 7.61326 50.9317C7.29631 51.0624 7.00825 51.2543 6.76557 51.4965C6.52288 51.7387 6.33035 52.0263 6.19898 52.343C6.06762 52.6597 6 52.9992 6 53.342V58.5592C6 57.1192 7.16998 55.9493 8.60995 55.9493H63.3835C64.8235 55.9493 65.9907 57.1192 65.9907 58.5592V53.342C65.9907 52.6506 65.716 51.9874 65.2271 51.4984C64.7381 51.0095 64.0777 50.7348 63.3862 50.7348Z" fill="#E3BFB3"/>
<rect x="12.3635" y="46.2693" width="18.1815" height="3.6363" rx="0.909074" fill="#C77F67"/>
<rect x="31.4541" y="46.2693" width="28.1813" height="3.6363" rx="0.909074" fill="#C77F67"/>
<path d="M45.5 41C46.4283 41 47.3185 40.6313 47.9749 39.9749C48.6313 39.3185 49 38.4283 49 37.5C49 36.5717 48.6313 35.6815 47.9749 35.0251C47.3185 34.3687 46.4283 34 45.5 34C44.5717 34 43.6815 34.3687 43.0251 35.0251C42.3687 35.6815 42 36.5717 42 37.5C42 38.4283 42.3687 39.3185 43.0251 39.9749C43.6815 40.6313 44.5717 41 45.5 41Z" fill="#FF808C"/>
<path d="M49.5 46C50.4283 46 51.3185 45.6313 51.9749 44.9749C52.6313 44.3185 53 43.4283 53 42.5C53 41.5717 52.6313 40.6815 51.9749 40.0251C51.3185 39.3687 50.4283 39 49.5 39C48.5717 39 47.6815 39.3687 47.0251 40.0251C46.3687 40.6815 46 41.5717 46 42.5C46 43.4283 46.3687 44.3185 47.0251 44.9749C47.6815 45.6313 48.5717 46 49.5 46Z" fill="#FF808C"/>
<path d="M42.5 46C43.4283 46 44.3185 45.6313 44.9749 44.9749C45.6313 44.3185 46 43.4283 46 42.5C46 41.5717 45.6313 40.6815 44.9749 40.0251C44.3185 39.3687 43.4283 39 42.5 39C41.5717 39 40.6815 39.3687 40.0251 40.0251C39.3687 40.6815 39 41.5717 39 42.5C39 43.4283 39.3687 44.3185 40.0251 44.9749C40.6815 45.6313 41.5717 46 42.5 46Z" fill="#FF808C"/>
<ellipse cx="44.5" cy="36" rx="1.5" ry="1" transform="rotate(-34.6349 44.5 36)" fill="#FFD2D7"/>
<ellipse cx="48.5" cy="41" rx="1.5" ry="1" transform="rotate(-34.6349 48.5 41)" fill="#FFD2D7"/>
<ellipse cx="41.5" cy="41" rx="1.5" ry="1" transform="rotate(-34.6349 41.5 41)" fill="#FFD2D7"/>
<defs>
<linearGradient id="paint0_linear_1111_5407" x1="42.5214" y1="9" x2="42.5214" y2="19.4344" gradientUnits="userSpaceOnUse">
<stop stop-color="#00CB06"/>
<stop offset="1" stop-color="#17F31D"/>
</linearGradient>
<linearGradient id="paint1_linear_1111_5407" x1="29.4773" y1="19.4344" x2="29.4773" y2="9.00281" gradientUnits="userSpaceOnUse">
<stop stop-color="#FFDA46"/>
<stop offset="1" stop-color="#EEBE00"/>
</linearGradient>
<linearGradient id="paint2_linear_1111_5407" x1="59.4761" y1="19.4345" x2="59.4761" y2="29.7746" gradientUnits="userSpaceOnUse">
<stop stop-color="#06E10C"/>
<stop offset="1" stop-color="#78EB7B"/>
</linearGradient>
<linearGradient id="paint3_linear_1111_5407" x1="29.4762" y1="32.4433" x2="29.4762" y2="19.4345" gradientUnits="userSpaceOnUse">
<stop stop-color="#FFEF5E"/>
<stop offset="1" stop-color="#FFCC00"/>
</linearGradient>
<linearGradient id="paint4_linear_1111_5407" x1="27.5244" y1="19.4345" x2="27.5244" y2="32.4447" gradientUnits="userSpaceOnUse">
<stop stop-color="#06E10C"/>
<stop offset="1" stop-color="#78EB7B"/>
</linearGradient>
</defs>
</svg>
