<svg width="72" height="72" viewBox="0 0 72 72" fill="none" xmlns="http://www.w3.org/2000/svg">
<path d="M35.2012 42.0524H37.2543V64.8167H35.2012V42.0524Z" fill="#B0E4FF"/>
<path d="M3.3865 40.5561L3.36963 37.9518L4.7815 35.8874L68.659 38.2274L68.6478 40.528C68.6478 40.528 3.50463 40.4324 3.3865 40.5561Z" fill="#178BFD"/>
<path d="M11.2778 26.451H14.717V31.5685H11.2778V26.451ZM32.3416 27.0346H35.9047V31.7648H32.3416V27.0346Z" fill="#5C6567"/>
<path d="M8.60205 40.8895H63.5414V64.4475H8.60205V40.8895Z" fill="#E1E1E1"/>
<path d="M6.50629 66.1877C6.50629 66.6525 6.76965 66.7867 7.63203 66.7867C8.49441 66.7867 64.0999 66.7196 64.5647 66.7196C65.0294 66.7196 65.4942 66.322 65.4942 65.7229C65.4942 65.1239 65.6491 63.8226 65.4322 63.2856C65.2153 62.7485 63.4389 62.072 63.4389 62.072H8.43245C8.43245 62.072 6.92973 62.826 6.64055 63.3992C6.35137 63.9724 6.50629 65.6558 6.50629 66.1877Z" fill="#9A9A9A"/>
<path d="M26.94 41.4729C26.94 41.4729 25.995 41.7776 25.9434 42.3869C25.8917 42.9963 25.9434 61.2973 25.9434 61.602C25.9434 61.9067 26.0983 62.3147 26.7283 62.3147H45.4941C45.8091 62.3147 46.1757 62.01 46.1757 61.6537V42.3353C46.1757 41.9274 45.5457 41.5194 45.1791 41.4729C44.8176 41.4265 26.94 41.4729 26.94 41.4729Z" fill="#00C1EC"/>
<path d="M25.8911 52.0126H46.2319V53.9543H25.8911V52.0126Z" fill="#178BFD"/>
<path d="M25.8911 50.4428H46.2268V52.1727H25.8911V50.4428Z" fill="#00AA46"/>
<path d="M36.3376 33.6549L6.01489 40.0427C6.01489 40.0427 6.11817 41.2769 6.92375 41.7004C7.37301 41.9379 8.59687 41.8656 8.59687 41.8656H64.9821C65.3591 41.8656 65.8548 41.4422 65.9013 40.8999C65.9478 40.3577 65.9013 39.8155 65.9013 39.8155L36.3376 33.6549Z" fill="#016DA7"/>
<path d="M6 37.6568V34.1867L34.5722 32.3276L65.9639 34.1867L65.938 37.9047C65.938 37.9099 6.04131 37.6982 6 37.6568Z" fill="#E1E1E1"/>
<path d="M6 34.1866V32.1623C6 31.4652 6.32533 30.7681 7.39427 30.7681H64.5283C65.2667 30.7681 66 31.1399 66 31.7957C66 32.4515 65.9639 34.1866 65.9639 34.1866H6Z" fill="#02AB46"/>
<path d="M8.63868 5.02582L38.0681 5C38.7704 5 39.3436 5.56804 39.3436 6.2755V26.828C39.3436 27.6956 38.6413 28.3927 37.7789 28.3927H8.82974C8.10163 28.3927 7.51293 27.8092 7.50261 27.0862L7.42515 6.25484C7.4231 6.09418 7.45297 5.93471 7.51304 5.78568C7.5731 5.63666 7.66217 5.50105 7.77506 5.38671C7.88795 5.27238 8.02242 5.18161 8.17067 5.11965C8.31892 5.0577 8.478 5.02581 8.63868 5.02582Z" fill="#ED6D30"/>
<path d="M14.2624 13.9439C14.66 13.7632 15.6308 12.1727 16.8444 12.2656C18.0579 12.3586 18.0785 13.9491 17.0612 15.2814C16.0646 16.5878 15.1351 17.6155 13.5756 19.7275C11.9902 21.8809 11.9902 23.9568 12.2691 24.2976C12.548 24.6384 13.2038 24.5765 14.8511 24.6075C16.4984 24.6384 21.3215 24.6384 21.5384 24.4525C21.7553 24.2666 21.6623 22.0255 21.6623 21.7466C21.6623 21.4678 21.2905 20.9979 20.8516 20.9979C20.4178 20.9979 17.0251 21.0288 17.0251 21.0288C17.0251 21.0288 18.0579 19.6191 19.1423 18.0751C20.7586 15.7719 21.8741 13.6341 21.6933 12.0745C21.3835 9.36863 19.6071 7.93821 16.3435 8.341C13.5239 8.69215 11.7424 11.7286 11.8973 12.1055C12.202 12.8336 13.8596 14.1298 14.2624 13.9439Z" fill="white"/>
<path d="M34.1019 17.6154C34.0812 17.3366 33.4822 17.3366 33.0123 17.3366C32.5475 17.3366 31.9537 17.3056 31.9537 17.3056C31.9537 17.3056 31.8917 8.90899 31.8917 8.41325C31.8917 7.91751 31.2101 7.57153 30.3993 7.60251C29.6505 7.6335 29.3097 7.60251 28.721 8.38227C28.2408 9.01227 22.8548 17.3469 22.4055 18.0234C21.8168 18.9271 21.254 20.5434 22.9013 20.7293C24.5486 20.9152 28.499 20.7293 28.499 20.7293V23.869C28.499 24.1788 28.5919 24.4267 29.0877 24.4267H31.4837C31.7936 24.4267 31.9485 24.2718 31.9485 23.6469V20.7241C31.9485 20.7241 33.255 20.7551 33.6268 20.7241C33.9986 20.6931 34.0915 20.1354 34.0915 19.8204C34.0915 19.5054 34.1638 18.39 34.1019 17.6154ZM26.547 17.4553L28.4732 14.3157C28.4112 14.3157 28.4732 17.3934 28.4732 17.3934L26.547 17.4553Z" fill="white"/>
<path d="M48.9385 43.7607H60.8311V52.906H48.9385V43.7607ZM11.4946 43.8846H23.3253V53.092H11.4946V43.8846Z" fill="#A7D0D6"/>
</svg>
