<svg width="72" height="72" viewBox="0 0 72 72" fill="none" xmlns="http://www.w3.org/2000/svg">
<g clip-path="url(#clip0_1111_5470)">
<path d="M10.6717 6.06716C12.4456 4.29364 14.7401 4.99798 16.2236 6.48148L34.9377 24.7261C35.2678 25.048 35.7966 25.0437 36.1227 24.7178C36.4488 24.3917 36.453 23.863 36.131 23.5328L22.5357 9.56333C21.0444 8.07177 20.3407 5.777 22.1145 4.00315C23.8885 2.2292 26.1835 2.93318 27.6671 4.41678C32.6509 9.31312 45.6575 22.1047 46.103 22.582C46.4368 22.9793 46.8102 23.083 47.0607 23.095C47.3948 23.1109 47.7255 22.9799 47.984 22.7215C48.5567 22.1487 48.6719 21.1256 48.6918 20.8273C48.7871 19.5069 48.4367 17.94 48.0668 16.2815C47.6055 14.2133 47.1291 12.0654 47.658 10.8125C48.0757 9.8301 48.7635 8.82313 49.6067 7.97993C50.959 6.62782 52.204 6.17896 52.7369 6.42554C55.0677 7.51537 54.9764 8.91981 54.5309 12.2688L54.4467 12.9166C54.0172 16.2496 55.7518 20.4259 57.2751 24.1129C57.8956 25.6164 58.4884 27.0372 58.902 28.3099C59.1526 29.0775 59.5306 29.9007 59.9641 30.8511C61.6516 34.5179 63.9491 39.5355 60.8521 46.3205L81.43 65.1472L65.9178 80.6593L47.0241 60.4315C40.9394 63.1261 35.9954 61.048 32.5754 58.3033C30.352 56.5174 7.71572 34.4545 7.489 34.2278C6.38328 33.1221 4.79676 30.9705 6.68591 29.0813C8.45986 27.3073 10.7549 28.0113 12.2385 29.4949L21.665 38.5554C21.9991 38.8736 22.5914 38.9409 22.9176 38.6148C23.2438 38.2886 23.1723 37.6921 22.8541 37.358L7.87915 21.9135C6.38362 20.418 5.66394 18.1073 7.4379 16.3333C9.21179 14.5596 11.4947 15.2512 12.9822 16.7387L28.2554 31.6307C28.5855 31.9528 29.1108 31.945 29.4369 31.619C29.7631 31.2928 29.7667 30.7635 29.4445 30.4333L11.0929 11.6273C9.60149 10.1358 8.8978 7.84102 10.6717 6.06716Z" fill="url(#paint0_linear_1111_5470)"/>
<path d="M53.5929 33.3006C53.5929 33.3006 54.1316 29.1896 53.1519 27.3311C52.1722 25.4725 49.1481 21.3679 42.8762 20.6276C39.5496 20.237 37.2973 20.678 35.2434 20.9205C33.9424 21.0749 31.5199 20.2748 27.1696 21.2639C23.9439 21.9979 19.0486 24.8362 17.4578 30.9537C16.6198 34.1763 16.938 37.6572 18.365 40.59C21.1056 46.2161 26.1931 47.5864 26.1931 47.5864L36.4184 48.418L48.7984 43.1825L53.5929 33.3006Z" fill="#FF2A23"/>
<path d="M41.7043 48.9567C48.2125 47.684 53.8386 41.8626 54.8183 35.6978C55.735 29.9299 52.3643 26.0647 52.3643 26.0647C52.3643 26.0647 52.7486 29.1424 52.0304 32.4217C51.2586 35.9309 49.0252 41.7807 41.95 45.0946C33.2651 49.1614 23.7517 46.4807 23.7517 46.4807C23.7517 46.4807 30.2158 51.2027 41.7043 48.9567Z" fill="#DC0D27"/>
<path d="M23.7138 28.065C21.9844 27.6177 19.8266 28.925 19.5147 32.7524C19.228 36.2585 21.1276 40.4828 22.9893 39.9788C24.5706 39.5504 23.0491 36.6208 23.613 34.2172C24.1832 31.8137 26.3505 28.7486 23.7138 28.065Z" fill="#FED3B0"/>
<path d="M25.9032 25.9513C25.6575 26.2694 26.2277 27.6681 29.1227 27.6492C32.0145 27.6303 32.4996 26.7577 33.788 27.1483C35.0764 27.5389 36.0813 29.0888 37.5052 29.9362C39.496 31.1206 42.369 30.8182 42.3501 30.2922C42.3312 29.7629 41.6287 30.0338 41.0239 29.2936C40.419 28.5501 39.348 26.5876 39.348 26.5876C39.348 26.5876 39.6473 25.6678 40.2804 25.7024C41.7421 25.7812 43.3676 25.4914 44.2622 24.9306C45.3332 24.2628 45.7365 23.2327 45.5411 22.9965C45.3458 22.7633 44.7379 23.3934 44.4071 23.3335C44.0763 23.2737 41.9248 23.3146 41.9248 23.3146L39.3259 22.8925C39.3259 22.8925 39.6819 21.371 40.3844 20.5898C41.0869 19.8085 42.1894 18.7343 42.1674 18.5989C42.1453 18.4634 41.2601 18.5831 41.2601 18.5831L38.5227 19.8337L36.6074 22.3538L32.9721 22.8232L29.4723 20.4764C29.4723 20.4764 27.4657 18.8572 27.3744 18.895C26.8672 19.1029 27.639 19.8747 28.2217 20.8071C28.7258 21.6167 28.8297 22.0231 29.5101 22.5869C30.1748 23.1351 31.29 23.68 31.29 23.68L30.4898 25.1259C30.4898 25.1259 27.9099 26.1434 27.4594 26.1434C27.0121 26.1466 26.0387 25.778 25.9032 25.9513Z" fill="#BDCF44"/>
<path d="M33.98 25.0787C35.0353 25.1574 35.7976 26.5592 36.749 27.5137C38.1382 28.9029 39.225 29.6275 40.3937 29.9015C40.9796 30.037 42.3247 30.2606 42.3247 30.2606C42.3247 30.2606 42.52 30.1252 41.8553 29.7535C41.1907 29.3818 40.7906 28.6698 40.6929 28.3391C40.5953 28.0083 40.2897 26.9215 39.6471 26.0206C39.0045 25.1196 38.2736 24.7385 38.5068 24.3289C38.7399 23.9194 40.7559 24.6125 42.6964 24.3006C45.2575 23.8911 45.6481 23.0689 45.5315 22.9712C45.415 22.8736 43.8305 23.343 43.0303 23.1666C42.2302 22.9901 41.5435 22.442 40.3338 22.442C39.5085 22.442 38.7021 22.7413 38.4847 22.2908C38.302 21.9128 38.9887 20.6496 39.5116 20.1739C40.7811 19.021 42.1515 18.7469 42.1515 18.5894C42.1515 18.265 39.9243 18.0822 38.3808 19.3139C36.8435 20.5393 37.1333 22.1491 35.1361 22.1491C34.4714 22.1491 34.2163 21.9916 34.2163 21.9916C34.2163 21.9916 33.3248 21.2576 32.134 20.6118C30.9433 19.966 30.0455 20.2527 29.3588 19.9219C28.6752 19.5912 27.4624 18.7343 27.3459 18.9076C27.2293 19.0808 28.2562 20.2527 29.5478 21.2103C30.8393 22.168 32.2853 22.6562 31.8726 23.0468C31.4631 23.4375 30.7795 23.6926 30.1337 24.1809C29.4879 24.6692 28.9209 25.3716 28.1397 25.6268C27.3585 25.882 26.0732 25.7024 25.8968 25.9166C25.7204 26.1308 27.2576 26.8711 29.6612 26.4238C32.0584 25.9765 32.0647 24.9369 33.98 25.0787Z" fill="#94A61D"/>
<path d="M36.3773 13.0011C35.8513 12.9759 35.1866 13.3917 35.1866 13.3917C35.1866 13.3917 34.2227 14.5667 33.8415 17.4837C33.6651 18.832 33.8572 20.6433 33.8194 21.6419C33.7816 22.6373 33.5643 23.0091 33.6241 23.5194C33.684 24.0266 34.2164 24.5999 35.4481 24.5873C36.4372 24.5778 36.9475 23.8123 36.9286 23.5383C36.9097 23.2642 36.0623 20.4701 36.3017 18.0067C36.5254 15.7165 37.3602 14.1351 37.3948 13.8044C37.4137 13.6248 37.1775 13.0389 36.3773 13.0011Z" fill="#728035"/>
</g>
<defs>
<linearGradient id="paint0_linear_1111_5470" x1="76.9036" y1="69.6734" x2="0.704411" y2="44.4809" gradientUnits="userSpaceOnUse">
<stop stop-color="#F5C48B"/>
<stop offset="1" stop-color="#FFD6A7"/>
</linearGradient>
<clipPath id="clip0_1111_5470">
<rect width="72" height="72" fill="white"/>
</clipPath>
</defs>
</svg>
