<svg width="121" height="120" viewBox="0 0 121 120" fill="none" xmlns="http://www.w3.org/2000/svg">
<path d="M56.7061 9.96094C55.7115 9.96094 54.7577 10.356 54.0544 11.0593C53.3511 11.7625 52.9561 12.7164 52.9561 13.7109C52.9561 14.7055 53.3511 15.6593 54.0544 16.3626C54.7577 17.0658 55.7115 17.4609 56.7061 17.4609C57.7006 17.4609 58.6544 17.0658 59.3577 16.3626C60.061 15.6593 60.4561 14.7055 60.4561 13.7109C60.4561 12.7164 60.061 11.7625 59.3577 11.0593C58.6544 10.356 57.7006 9.96094 56.7061 9.96094Z" fill="#FE7549"/>
<path d="M13.9542 98.9255C13.1002 98.2621 11.8244 98.6349 11.5093 99.6694L8.24213 110.394C7.89229 111.542 8.96595 112.615 10.1142 112.266L24.0301 108.025C25.3856 107.612 25.4774 105.693 24.1926 105.095C20.7569 103.498 17.3226 101.542 13.9542 98.9255Z" fill="#A8A8A8"/>
<path d="M29.8455 53.5782C28.158 53.5313 27.1033 53.9297 26.4471 54.586C25.7908 55.2422 25.3924 56.2969 25.4393 57.9844C25.4862 59.6954 26.0487 61.9454 27.1268 64.4532C29.283 69.4922 33.5252 75.5626 39.2205 81.2813C44.9158 86.9766 51.0096 91.1954 56.0486 93.3516C58.533 94.4297 60.783 94.9922 62.494 95.0391C64.2049 95.1094 65.2361 94.6876 65.8924 94.0313C66.5486 93.3751 66.9705 92.3438 66.9002 90.6329C66.8533 88.9219 66.2908 86.6719 65.2127 84.1641C63.0565 79.1485 58.8377 73.0547 53.1424 67.3594C47.4471 61.6407 41.3533 57.4219 36.3143 55.2657C33.8065 54.1876 31.5565 53.6251 29.8455 53.5782Z" fill="#7F7F7F"/>
<path d="M22.7656 28.8281C21.7711 28.8281 20.8172 29.2232 20.114 29.9265C19.4107 30.6297 19.0156 31.5836 19.0156 32.5781C19.0156 33.5727 19.4107 34.5265 20.114 35.2298C20.8172 35.933 21.7711 36.3281 22.7656 36.3281C23.2583 36.3284 23.7462 36.2317 24.2014 36.0433C24.6567 35.855 25.0703 35.5789 25.4188 35.2306C25.7673 34.8824 26.0437 34.4689 26.2323 34.0137C26.4209 33.5586 26.518 33.0708 26.518 32.5781C26.518 32.0855 26.4209 31.5976 26.2323 31.1425C26.0437 30.6874 25.7673 30.2739 25.4188 29.9256C25.0703 29.5774 24.6567 29.3012 24.2014 29.1129C23.7462 28.9246 23.2583 28.8278 22.7656 28.8281Z" fill="#FE7549"/>
<path d="M31.7661 6.99715C30.7216 6.35873 29.3934 7.17279 29.4883 8.39326L29.6 9.83009C29.6372 10.3085 29.4432 10.7759 29.0782 11.0874L27.9819 12.0228C27.0501 12.8179 27.4126 14.3343 28.6033 14.6219L30.0196 14.9641C30.4853 15.0766 30.8693 15.4049 31.0529 15.8474L31.6051 17.1786C32.074 18.3091 33.6264 18.4324 34.268 17.3903L35.0259 16.1591C35.2766 15.7518 35.7065 15.4885 36.1832 15.4502L37.6143 15.3354C38.8332 15.2375 39.4292 13.8007 38.6373 12.8688L37.699 11.7646C37.3892 11.4 37.2718 10.9096 37.3831 10.4443L37.7192 9.03925C38.0039 7.84947 36.8212 6.83768 35.6898 7.30305L34.3472 7.85528C33.9049 8.03721 33.4024 7.99733 32.9943 7.74791L31.7661 6.99715Z" fill="#FFAE00"/>
<path d="M41.8706 20.4155C41.6504 20.0642 41.1868 19.9582 40.8358 20.179L38.542 21.6217C38.1922 21.8417 38.0863 22.3032 38.3051 22.6538L45.3202 33.8881C45.6231 34.3731 45.2936 35.005 44.7226 35.0343L33.8803 35.5918C33.351 35.619 33.0162 36.1717 33.2371 36.6534L38.6735 48.5109C38.8466 48.8885 39.2937 49.0535 39.6706 48.8788L42.1518 47.729C42.5271 47.5551 42.6907 47.11 42.5174 46.7344L39.6626 40.5458C39.4402 40.0638 39.7752 39.5097 40.3053 39.4826L52.126 38.8779C52.6976 38.8486 53.0271 38.2156 52.7231 37.7306L41.8706 20.4155Z" fill="#496FF8"/>
<path d="M99.9488 12.2985C99.8708 11.8926 99.4779 11.6235 99.0801 11.7357C97.2004 12.2662 95.4412 13.4358 93.7373 14.9111C92.0329 16.3755 90.4358 18.1833 89.0692 20.1414C88.9512 20.3105 88.7704 20.4251 88.5673 20.4601C84.268 21.1995 80.0021 22.967 77.1201 25.3595C73.4208 28.3925 70.1269 33.5429 68.2765 38.8895C68.2058 39.0937 68.0525 39.2585 67.8542 39.3441C66.2358 40.0425 64.7114 40.8614 63.4561 41.7423C59.8232 44.297 57.9482 49.1955 56.5654 53.4611C55.5502 56.6099 54.914 59.4681 54.6475 60.7653C54.564 61.1715 54.8341 61.5597 55.2421 61.633L57.9368 62.1175C58.3444 62.1908 58.7355 61.9213 58.8185 61.5155C59.071 60.2816 59.6559 57.6446 60.5732 54.7736C61.8623 50.8126 64.042 46.5001 65.8936 45.2111C66.3139 44.9201 66.8781 45.2829 66.8601 45.7939C66.8278 46.7114 66.8729 47.6186 67.0186 48.4923C67.4404 51.1642 68.8936 53.7189 71.4717 55.1017C73.2998 56.0861 75.3623 55.8517 77.0967 55.1486C78.8311 54.422 80.3779 53.2267 81.7139 51.8205C83.0498 50.4142 84.1514 48.7501 84.8076 46.9923C85.4626 45.2379 85.6973 43.25 84.8594 41.4015C84.8564 41.395 84.8499 41.3908 84.8427 41.3908C84.8356 41.3908 84.8291 41.3866 84.8261 41.3801C83.9107 39.4175 82.1558 38.1554 80.2842 37.6173C78.4092 37.0783 76.3936 37.1017 74.3779 37.4064C73.9434 37.4643 73.6123 37.0808 73.8107 36.6899C75.5069 33.3485 77.7571 30.286 79.792 28.5939C80.9695 27.6253 82.7933 26.6875 84.827 25.9177C85.4125 25.696 85.9738 26.2717 85.8187 26.8782C85.7152 27.2827 85.6339 27.6898 85.5811 28.1017C85.2061 30.5626 85.7451 33.2345 87.7139 35.0626C89.1436 36.3751 91.0654 36.5861 92.7529 36.3048C94.417 36.0236 96.0342 35.2736 97.4873 34.3126C98.9404 33.3283 100.229 32.1095 101.144 30.6798C102.056 29.253 102.665 27.4294 102.085 25.605C102.082 25.5977 102.081 25.59 102.081 25.5823C102.081 25.5745 102.08 25.5666 102.077 25.5592C101.301 23.2051 99.3823 21.5872 97.2529 20.8197C96.7879 20.6527 96.3108 20.5228 95.8246 20.4209C95.2291 20.2962 94.9558 19.5709 95.3836 19.1383C95.7467 18.7712 96.1131 18.4244 96.4795 18.1056C97.7129 17.0464 98.9602 16.2931 99.885 15.9273C100.271 15.7744 100.541 15.376 100.462 14.9678L99.9488 12.2985ZM92.1904 24.3048C93.6201 24.2814 94.8858 24.4455 95.8233 24.797C97.0889 25.2423 97.7217 25.8048 98.0498 26.8595C98.1436 27.1173 98.0967 27.633 97.6045 28.4064C97.0889 29.2033 96.1748 30.0939 95.1436 30.797C94.0889 31.5001 92.917 31.9923 92.0498 32.133C91.1592 32.297 90.7607 32.133 90.5732 31.9689C89.7529 31.2189 89.5186 30.2814 89.7529 28.7111C89.9249 27.5505 90.4319 26.173 91.1836 24.7415C91.3105 24.4997 91.5632 24.3493 91.8352 24.3252C91.9551 24.3146 92.0728 24.3048 92.1904 24.3048ZM77.2842 41.4142C77.9639 41.4376 78.5967 41.5314 79.0889 41.672C80.0967 41.9533 80.6357 42.3751 81.0107 43.172C81.2217 43.6173 81.2451 44.4376 80.8467 45.5158C80.4482 46.6173 79.6279 47.883 78.6436 48.9376C77.6592 49.9923 76.4639 50.8361 75.4795 51.2345C74.5034 51.6296 73.8961 51.6099 73.4975 51.4039C73.4907 51.4004 73.4834 51.3986 73.4758 51.3986C73.468 51.3986 73.4602 51.3966 73.4533 51.3928C72.1011 50.643 71.4476 49.566 71.1904 47.8361C70.9716 46.4571 71.1002 44.7306 71.519 42.8666C71.5749 42.6182 71.7574 42.4178 71.999 42.3375C73.018 41.9988 74.0329 41.7239 75.0107 41.5783C75.8311 41.4611 76.5811 41.4142 77.2842 41.4142Z" fill="#FE7549"/>
<path d="M84.8893 61.4745C84.5379 61.1795 84.0064 61.2664 83.7671 61.6579L76.9734 72.7749C76.7237 73.1835 76.1601 73.2566 75.8144 72.9252L70.2098 67.5516C69.9102 67.2644 69.4344 67.2751 69.148 67.5754L67.2767 69.5372C66.9915 69.8362 67.0019 70.3097 67.3 70.5959L76.6587 79.5811C77.0042 79.9127 77.5677 79.8401 77.8178 79.4317L84.7995 68.0297C85.0384 67.6394 85.5683 67.5523 85.9196 67.8455L93.9703 74.5648C94.1869 74.7456 94.4865 74.7895 94.7459 74.6786L114.567 66.1997C114.946 66.0374 115.123 65.599 114.963 65.2187L113.905 62.7108C113.744 62.3276 113.301 62.149 112.919 62.3129L95.4506 69.8025C95.1904 69.914 94.8896 69.8696 94.6728 69.6876L84.8893 61.4745Z" fill="#496FF8"/>
<path d="M86.7529 82.5C85.7584 82.5 84.8045 82.8951 84.1013 83.5983C83.398 84.3016 83.0029 85.2554 83.0029 86.25C83.0029 87.2446 83.398 88.1984 84.1013 88.9017C84.8045 89.6049 85.7584 90 86.7529 90C87.7475 90 88.7013 89.6049 89.4046 88.9017C90.1078 88.1984 90.5029 87.2446 90.5029 86.25C90.5029 85.2554 90.1078 84.3016 89.4046 83.5983C88.7013 82.8951 87.7475 82.5 86.7529 82.5Z" fill="#FE7549"/>
<path d="M23.2742 66.1172C22.9696 65.4259 21.9229 65.4568 21.7027 66.1794L18.5034 76.6804C18.3551 77.1671 18.4641 77.698 18.7963 78.0833C28.2608 89.0616 39.2314 95.3527 51.1127 99.497C51.4113 99.6012 51.7355 99.6065 52.0381 99.514L54.2997 98.823C55.0427 98.5959 55.0769 97.5222 54.3617 97.2187C48.643 94.7812 42.2445 90.2812 36.2445 84.2578C30.2211 78.2344 25.7211 71.8359 23.2742 66.1172Z" fill="#A8A8A8"/>
<path d="M18.6275 84.1476C17.8159 83.312 16.3868 83.6338 16.0474 84.7481L13.8066 92.1055C13.6399 92.653 13.7981 93.2496 14.224 93.6319C20.643 99.3949 27.3195 102.155 34.3068 104.604C34.6067 104.709 34.9324 104.716 35.2364 104.623L40.8972 102.902C42.2485 102.491 42.347 100.58 41.0662 99.9847C33.0829 96.2731 25.5067 91.2306 18.6275 84.1476Z" fill="#7F7F7F"/>
<path d="M106.909 40.385C106.625 39.1978 105.117 38.8292 104.317 39.7513L103.353 40.8629C103.04 41.2241 102.573 41.4143 102.096 41.3749L100.676 41.2576C99.4551 41.1568 98.6348 42.4828 99.27 43.5303L100.02 44.7676C100.269 45.1786 100.307 45.6841 100.12 46.1271L99.5659 47.4444C99.0907 48.5738 100.097 49.7656 101.29 49.4869L102.698 49.1579C103.165 49.0488 103.655 49.1693 104.018 49.4821L105.111 50.4234C106.038 51.2217 107.479 50.6351 107.584 49.4166L107.711 47.9592C107.752 47.4838 108.017 47.0565 108.424 46.8081L109.656 46.0574C110.7 45.4206 110.584 43.8685 109.457 43.3941L108.125 42.8337C107.685 42.6485 107.359 42.2648 107.248 41.8004L106.909 40.385Z" fill="#FFAE00"/>
<path d="M109.253 7.5C108.258 7.5 107.305 7.89509 106.601 8.59835C105.898 9.30161 105.503 10.2554 105.503 11.25C105.503 12.2446 105.898 13.1984 106.601 13.9017C107.305 14.6049 108.258 15 109.253 15C110.247 15 111.201 14.6049 111.905 13.9017C112.608 13.1984 113.003 12.2446 113.003 11.25C113.003 10.2554 112.608 9.30161 111.905 8.59835C111.201 7.89509 110.247 7.5 109.253 7.5Z" fill="#496FF8"/>
</svg>
