<svg width="52" height="60" viewBox="0 0 52 60" fill="none" xmlns="http://www.w3.org/2000/svg">
<g filter="url(#filter0_d_487_3443)">
<path d="M25.999 10C34.8351 10 41.9986 17.163 41.999 25.999C41.999 31.4795 38.9498 35.4769 35.6113 38.9541C34.774 39.8262 33.9074 40.6759 33.0605 41.5088C32.2102 42.3451 31.3792 43.1654 30.5938 43.9932C29.0192 45.6525 27.6714 47.3009 26.7842 49.0752C26.6356 49.3724 26.3313 49.5605 25.999 49.5605C25.6669 49.5604 25.3634 49.3723 25.2148 49.0752C24.3276 47.3009 22.9798 45.6525 21.4053 43.9932C20.6199 43.1655 19.7887 42.3451 18.9385 41.5088C18.0917 40.6759 17.225 39.8262 16.3877 38.9541C13.0492 35.4769 10 31.4796 10 25.999C10.0004 17.1632 17.1631 10.0002 25.999 10Z" fill="#496FF8"/>
<path d="M23.9531 25.2656V26.2969H20.8125V28.7227H25.0312V29.7891H15.3516V28.7227H19.5234V26.2969H16.5234V21.2344H23.8711V22.2773H17.8242V25.2656H23.9531ZM29.5312 22.7461C29.5312 23.9062 30.3867 25.0664 32.0625 25.5234L31.4531 26.5664C30.2402 26.2148 29.373 25.4766 28.8984 24.5508C28.4297 25.5703 27.5508 26.3672 26.3086 26.7422L25.6758 25.7227C27.3398 25.2422 28.2305 24.0117 28.2305 22.7461V22.6641H26.0156V21.6328H28.2305V20.4141H29.543V21.6328H31.7461V22.6641H29.5312V22.7461ZM34.0781 20.4492V23.1328H35.5547V24.2344H34.0781V26.9297H32.7773V20.4492H34.0781ZM34.0781 27.4102V31.0547H32.7773V28.4531H27.0234V27.4102H34.0781Z" fill="white"/>
</g>
<defs>
<filter id="filter0_d_487_3443" x="0" y="0" width="51.999" height="59.5605" filterUnits="userSpaceOnUse" color-interpolation-filters="sRGB">
<feFlood flood-opacity="0" result="BackgroundImageFix"/>
<feColorMatrix in="SourceAlpha" type="matrix" values="0 0 0 0 0 0 0 0 0 0 0 0 0 0 0 0 0 0 127 0" result="hardAlpha"/>
<feOffset/>
<feGaussianBlur stdDeviation="5"/>
<feComposite in2="hardAlpha" operator="out"/>
<feColorMatrix type="matrix" values="0 0 0 0 0 0 0 0 0 0 0 0 0 0 0 0 0 0 0.2 0"/>
<feBlend mode="normal" in2="BackgroundImageFix" result="effect1_dropShadow_487_3443"/>
<feBlend mode="normal" in="SourceGraphic" in2="effect1_dropShadow_487_3443" result="shape"/>
</filter>
</defs>
</svg>
