<svg width="24" height="24" viewBox="0 0 24 24" fill="none" xmlns="http://www.w3.org/2000/svg">
<path d="M12 1.25C16.8325 1.25 20.75 5.16751 20.75 10C20.75 13.0166 19.0671 15.2019 17.291 17.0518C16.8449 17.5164 16.3836 17.9685 15.9365 18.4082C15.4863 18.8511 15.0493 19.282 14.6377 19.7158C13.8114 20.5866 13.1214 21.4342 12.6709 22.335C12.5439 22.589 12.2841 22.75 12 22.75C11.7159 22.75 11.4561 22.589 11.3291 22.335C10.8786 21.4342 10.1886 20.5866 9.3623 19.7158C8.95066 19.282 8.51374 18.8511 8.06348 18.4082C7.61643 17.9685 7.15514 17.5164 6.70898 17.0518C4.9329 15.2019 3.25 13.0166 3.25 10C3.25 5.16751 7.16751 1.25 12 1.25ZM12 5.75C9.92893 5.75 8.25 7.42893 8.25 9.5C8.25 11.5711 9.92893 13.25 12 13.25C14.0711 13.25 15.75 11.5711 15.75 9.5C15.75 7.42893 14.0711 5.75 12 5.75Z" fill="#FE7549"/>
</svg>
