<svg width="24" height="24" viewBox="0 0 24 24" fill="none" xmlns="http://www.w3.org/2000/svg">
<path d="M15.2002 2.25C16.0278 2.25 16.6936 2.24903 17.2314 2.29297C17.7781 2.33763 18.2579 2.43286 18.7021 2.65918C19.4078 3.0187 19.9813 3.59224 20.3408 4.29785C20.5671 4.74205 20.6624 5.22195 20.707 5.76855C20.751 6.30638 20.75 6.97222 20.75 7.7998V21C20.75 21.2819 20.5919 21.5399 20.3408 21.668C20.0894 21.796 19.7867 21.7724 19.5586 21.6064L17.2715 19.9434L15.2188 21.5859C14.9549 21.797 14.5819 21.8052 14.3086 21.6064L12 19.9268L9.69141 21.6064C9.41811 21.8052 9.04513 21.797 8.78125 21.5859L6.72754 19.9434L4.44141 21.6064C4.21327 21.7724 3.91056 21.796 3.65918 21.668C3.40811 21.5399 3.25 21.2819 3.25 21V7.7998C3.25 6.97222 3.24903 6.30638 3.29297 5.76855C3.33763 5.22195 3.43286 4.74205 3.65918 4.29785C4.0187 3.59224 4.59224 3.0187 5.29785 2.65918C5.74205 2.43286 6.22195 2.33763 6.76855 2.29297C7.30638 2.24903 7.97222 2.25 8.7998 2.25H15.2002ZM7.75 14.5C7.33579 14.5 7 14.8358 7 15.25C7 15.6642 7.33579 16 7.75 16H16.25C16.6642 16 17 15.6642 17 15.25C17 14.8358 16.6642 14.5 16.25 14.5H7.75ZM7.75 10.5C7.33579 10.5 7 10.8358 7 11.25C7 11.6642 7.33579 12 7.75 12H16.25C16.6642 12 17 11.6642 17 11.25C17 10.8358 16.6642 10.5 16.25 10.5H7.75ZM7.75 6.5C7.33579 6.5 7 6.83579 7 7.25C7 7.66421 7.33579 8 7.75 8H16.25C16.6642 8 17 7.66421 17 7.25C17 6.83579 16.6642 6.5 16.25 6.5H7.75Z" fill="#FE7549"/>
</svg>
