<svg width="52" height="60" viewBox="0 0 52 60" fill="none" xmlns="http://www.w3.org/2000/svg">
<g filter="url(#filter0_d_487_3439)">
<path d="M25.999 10C34.8351 10 41.9986 17.163 41.999 25.999C41.999 31.4796 38.9498 35.4769 35.6113 38.9541C34.774 39.8262 33.9074 40.6759 33.0605 41.5088C32.2102 42.3451 31.3792 43.1654 30.5938 43.9932C29.0192 45.6525 27.6714 47.3009 26.7842 49.0752C26.6356 49.3724 26.3313 49.5605 25.999 49.5605C25.6669 49.5604 25.3634 49.3723 25.2148 49.0752C24.3276 47.3009 22.9798 45.6525 21.4053 43.9932C20.6199 43.1655 19.7887 42.3451 18.9385 41.5088C18.0917 40.6759 17.225 39.8262 16.3877 38.9541C13.0492 35.4769 10 31.4796 10 25.999C10.0004 17.1632 17.1631 10.0002 25.999 10Z" fill="#FE7549"/>
<path d="M24.9844 25.0312V25.9922H20.8125V26.7656H23.8008V29.25H17.7773V29.9766H24.0938V30.9492H16.5V28.3594H22.5234V27.7031H16.4883V26.7656H19.5234V25.9922H15.375V25.0312H24.9844ZM20.8125 20.4258V21.3164H24.0586V22.2891H20.9531C21.2051 23.0391 22.4355 23.6016 24.5508 23.707L24.1641 24.6797C22.2656 24.5625 20.8359 24.0469 20.168 23.1914C19.5 24.0469 18.0762 24.5625 16.1602 24.6797L15.7969 23.707C17.8887 23.6016 19.1191 23.0391 19.3945 22.2891H16.3008V21.3164H19.5234V20.4258H20.8125ZM27.375 20.918V22.2656H29.8477V20.918H31.1367V25.5352H26.0859V20.918H27.375ZM27.375 24.5039H29.8477V23.25H27.375V24.5039ZM34.0781 20.4492V22.5938H35.5547V23.6484H34.0781V25.875H32.7773V20.4492H34.0781ZM34.0781 26.2969V29.0742H28.4531V29.918H34.4062V30.9492H27.1641V28.125H32.7773V27.3164H27.1523V26.2969H34.0781Z" fill="white"/>
</g>
<defs>
<filter id="filter0_d_487_3439" x="0" y="0" width="51.999" height="59.5605" filterUnits="userSpaceOnUse" color-interpolation-filters="sRGB">
<feFlood flood-opacity="0" result="BackgroundImageFix"/>
<feColorMatrix in="SourceAlpha" type="matrix" values="0 0 0 0 0 0 0 0 0 0 0 0 0 0 0 0 0 0 127 0" result="hardAlpha"/>
<feOffset/>
<feGaussianBlur stdDeviation="5"/>
<feComposite in2="hardAlpha" operator="out"/>
<feColorMatrix type="matrix" values="0 0 0 0 0 0 0 0 0 0 0 0 0 0 0 0 0 0 0.2 0"/>
<feBlend mode="normal" in2="BackgroundImageFix" result="effect1_dropShadow_487_3439"/>
<feBlend mode="normal" in="SourceGraphic" in2="effect1_dropShadow_487_3439" result="shape"/>
</filter>
</defs>
</svg>
