<svg width="20" height="20" viewBox="0 0 20 20" fill="none" xmlns="http://www.w3.org/2000/svg">
<path d="M9.16667 15.8333H13.75C14.5235 15.8333 15.2654 15.526 15.8124 14.9791C16.3594 14.4321 16.6667 13.6902 16.6667 12.9167C16.6667 12.1431 16.3594 11.4013 15.8124 10.8543C15.2654 10.3073 14.5235 10 13.75 10H7.08333C6.30979 10 5.56792 9.69271 5.02094 9.14573C4.47396 8.59875 4.16667 7.85688 4.16667 7.08333C4.16667 6.30979 4.47396 5.56792 5.02094 5.02094C5.56792 4.47396 6.30979 4.16667 7.08333 4.16667H10.8333M2.5 15.8333C2.5 16.2754 2.67559 16.6993 2.98816 17.0118C3.30072 17.3244 3.72464 17.5 4.16667 17.5C4.60869 17.5 5.03262 17.3244 5.34518 17.0118C5.65774 16.6993 5.83333 16.2754 5.83333 15.8333C5.83333 15.3913 5.65774 14.9674 5.34518 14.6548C5.03262 14.3423 4.60869 14.1667 4.16667 14.1667C3.72464 14.1667 3.30072 14.3423 2.98816 14.6548C2.67559 14.9674 2.5 15.3913 2.5 15.8333ZM15.8333 5.83333C16.2754 5.83333 16.6993 5.65774 17.0118 5.34518C17.3244 5.03262 17.5 4.60869 17.5 4.16667C17.5 3.72464 17.3244 3.30072 17.0118 2.98816C16.6993 2.67559 16.2754 2.5 15.8333 2.5C15.3913 2.5 14.9674 2.67559 14.6548 2.98816C14.3423 3.30072 14.1667 3.72464 14.1667 4.16667C14.1667 4.60869 14.3423 5.03262 14.6548 5.34518C14.9674 5.65774 15.3913 5.83333 15.8333 5.83333Z" stroke="white" stroke-width="1.5" stroke-linecap="round" stroke-linejoin="round"/>
</svg>
