<svg width="16" height="16" viewBox="0 0 16 16" fill="none" xmlns="http://www.w3.org/2000/svg">
<rect width="16" height="16" rx="8" fill="#FE7549"/>
<path d="M7.99414 12.1172C6.17773 12.1172 4.88867 11.1328 4.85352 9.70312H6.38867C6.43555 10.3828 7.11523 10.8281 7.99414 10.8281C8.93164 10.8281 9.59961 10.3125 9.59961 9.5625C9.59961 8.80078 8.94336 8.25 7.8418 8.25H7.08008V7.07812H7.8418C8.74414 7.07812 9.37695 6.57422 9.36523 5.83594C9.37695 5.12109 8.83789 4.64062 8.00586 4.64062C7.20898 4.64062 6.51758 5.08594 6.49414 5.80078H5.0293C5.06445 4.37109 6.35352 3.39844 8.01758 3.39844C9.74023 3.39844 10.8535 4.45312 10.8418 5.75391C10.8535 6.70312 10.2207 7.39453 9.29492 7.58203V7.65234C10.4902 7.81641 11.1699 8.57812 11.1582 9.64453C11.1699 11.0742 9.83398 12.1172 7.99414 12.1172Z" fill="white"/>
</svg>
