<svg width="24" height="24" viewBox="0 0 24 24" fill="none" xmlns="http://www.w3.org/2000/svg">
<path d="M11.543 1.577C11.8422 1.49606 12.1578 1.49609 12.457 1.577C12.8318 1.67847 13.1459 1.94113 13.4424 2.17172L20.2246 7.44711C20.6443 7.77355 20.972 8.01973 21.2109 8.34262C21.4097 8.61136 21.5583 8.91433 21.6484 9.23618C21.7567 9.62291 21.75 10.0328 21.75 10.5643V17.7997C21.75 18.3471 21.751 18.8036 21.7207 19.1747C21.6897 19.5543 21.6218 19.9109 21.4502 20.2479C21.1866 20.7653 20.7654 21.1864 20.248 21.45C19.911 21.6217 19.5545 21.6885 19.1748 21.7196C18.8037 21.7499 18.3475 21.7498 17.7998 21.7498H6.2002C5.65256 21.7498 5.19631 21.7499 4.8252 21.7196C4.44557 21.6885 4.08901 21.6217 3.75195 21.45C3.23461 21.1864 2.81342 20.7653 2.5498 20.2479C2.37819 19.9109 2.31033 19.5542 2.2793 19.1747C2.24901 18.8036 2.25 18.3471 2.25 17.7997V10.5643C2.24999 10.0328 2.24331 9.62291 2.35156 9.23618C2.44173 8.91431 2.5903 8.61137 2.78906 8.34262C3.02797 8.0197 3.35565 7.77358 3.77539 7.44711L10.5576 2.17172C10.8541 1.94111 11.1681 1.67849 11.543 1.577ZM8 16.2498C7.58588 16.2499 7.25008 16.5857 7.25 16.9998C7.25 17.414 7.58582 17.7498 8 17.7498H16C16.4142 17.7498 16.75 17.4141 16.75 16.9998C16.7499 16.5857 16.4142 16.2498 16 16.2498H8Z" fill="#FE7549"/>
</svg>
